<svg width="224" height="38" viewBox="0 0 224 38" fill="none" xmlns="http://www.w3.org/2000/svg">
<path d="M21.544 37.8082L20.104 31.8242H11.016L9.8 37.8082H0.392L10.152 2.89623L9.384 0.304228H22.6L33.288 37.8082H21.544ZM15.144 11.3122L12.328 25.2962H18.536L15.144 11.3122ZM34.6463 37.8082V0.304228H45.5582V37.8082H34.6463Z" fill="#2A7252"/>
<path d="M59.2653 29.6722C58.3293 29.6722 57.5373 29.6482 56.8893 29.6002C56.2653 29.5282 55.4373 29.4202 54.4053 29.2762L54.3693 33.0562C54.3453 33.7042 54.3333 34.6282 54.3333 35.8282C54.3333 36.4522 54.1533 36.9442 53.7933 37.3042C53.4573 37.6402 53.0733 37.8082 52.6413 37.8082C51.8493 37.8082 51.2613 37.7122 50.8773 37.5202C50.4933 37.3042 50.3013 36.9322 50.3013 36.4042C50.3013 35.7082 50.3613 34.7242 50.4813 33.4522C50.7453 30.7162 50.8773 27.9082 50.8773 25.0282C50.8773 22.3402 50.7933 19.8082 50.6253 17.4322C50.6493 17.0962 50.8173 16.7122 51.1293 16.2802C51.4653 15.8482 51.8853 15.6082 52.3893 15.5602C52.9413 15.5602 53.8173 15.4642 55.0173 15.2722C56.2653 15.0802 57.2133 14.9842 57.8613 14.9842C59.8293 14.9842 61.3533 15.1762 62.4333 15.5602C63.5373 15.9442 64.6413 16.5802 65.7453 17.4682C66.9453 19.3402 67.5453 20.6602 67.5453 21.4282C67.5453 23.0362 67.2213 24.4642 66.5733 25.7122C65.9253 26.9602 64.9773 27.9322 63.7293 28.6282C62.4813 29.3242 60.9933 29.6722 59.2653 29.6722ZM58.4373 18.0442C57.6693 18.0442 56.9973 18.0922 56.4213 18.1882C55.8693 18.2602 55.1973 18.3922 54.4053 18.5842C54.5013 20.7922 54.5493 22.4002 54.5493 23.4082C54.5493 24.4402 54.5133 25.3042 54.4413 26.0002C55.4733 26.2162 56.2893 26.3602 56.8893 26.4322C57.4893 26.4802 58.1613 26.5042 58.9053 26.5042C60.6813 26.5042 61.9293 26.0482 62.6493 25.1362C63.3933 24.2002 63.7653 23.1202 63.7653 21.8962C63.7653 21.5362 63.6573 21.0922 63.4413 20.5642C63.2253 20.0362 63.0333 19.6882 62.8653 19.5202C62.2173 18.9442 61.5813 18.5602 60.9573 18.3682C60.3573 18.1522 59.5173 18.0442 58.4373 18.0442ZM75.5837 36.3682C75.5837 36.7762 75.4277 37.1362 75.1157 37.4482C74.8037 37.7602 74.4197 37.9162 73.9637 37.9162C73.2437 37.9162 72.7157 37.7842 72.3797 37.5202C72.0437 37.2322 71.8757 36.7162 71.8757 35.9722C71.8757 35.0842 71.8517 33.9202 71.8037 32.4802C71.7557 31.2802 71.7317 30.2722 71.7317 29.4562C71.7317 29.0722 71.7557 28.5682 71.8037 27.9442C71.8517 27.3682 71.8757 26.9362 71.8757 26.6482C71.8037 26.1922 71.6237 25.8202 71.3357 25.5322C71.0477 25.2202 70.6757 25.0642 70.2197 25.0642C70.0037 25.0642 69.8237 24.9682 69.6797 24.7762C69.5357 24.5602 69.4637 24.3442 69.4637 24.1282C69.4637 23.5762 69.6797 23.1562 70.1117 22.8682C70.5677 22.5802 71.1077 22.4362 71.7317 22.4362C73.0277 22.4362 73.9277 23.2042 74.4317 24.7402C75.0557 24.0202 75.7637 23.4442 76.5557 23.0122C77.3717 22.5562 78.1517 22.3282 78.8957 22.3282C79.7837 22.3282 80.5877 22.5682 81.3077 23.0482C82.0517 23.5282 82.4237 24.1762 82.4237 24.9922C82.4237 25.4482 82.2197 25.9162 81.8117 26.3962C81.4277 26.8762 81.0317 27.1162 80.6237 27.1162C80.4077 27.1162 80.2157 27.0682 80.0477 26.9722C79.9037 26.8522 79.7237 26.6842 79.5077 26.4682C79.2677 26.2282 79.0637 26.0602 78.8957 25.9642C78.7277 25.8442 78.5357 25.7842 78.3197 25.7842C77.9357 25.7842 77.5757 25.8442 77.2397 25.9642C76.9037 26.0842 76.6757 26.2282 76.5557 26.3962C76.1717 26.9962 75.8837 27.5362 75.6917 28.0162C75.5237 28.4962 75.4397 29.0122 75.4397 29.5642C75.4397 29.9722 75.4277 30.2962 75.4037 30.5362L75.3677 32.5882C75.3677 32.9002 75.3797 33.2482 75.4037 33.6322C75.4277 34.0162 75.4517 34.3042 75.4757 34.4962C75.5477 35.1442 75.5837 35.7682 75.5837 36.3682ZM98.8203 26.2522C99.0123 26.5882 99.1683 27.0802 99.2883 27.7282C99.4083 28.3522 99.4683 28.9162 99.4683 29.4202C99.4683 30.3562 99.2643 31.6882 98.8563 33.4162C97.2003 36.4402 94.7523 37.9522 91.5123 37.9522C90.3123 37.9522 89.0883 37.5562 87.8403 36.7642C86.5923 35.9722 85.7283 35.0602 85.2483 34.0282C84.6003 31.9642 84.2763 30.6562 84.2763 30.1042C84.2763 29.1442 84.4803 28.1242 84.8883 27.0442C85.3203 25.9642 85.8603 25.0282 86.5083 24.2362C86.9163 23.6842 87.6483 23.2162 88.7043 22.8322C89.7603 22.4242 90.7203 22.2202 91.5843 22.2202C93.2643 22.2202 94.6923 22.5442 95.8683 23.1922C97.0443 23.8162 98.0283 24.8362 98.8203 26.2522ZM95.6883 32.0482C95.8083 31.7362 95.8683 30.9322 95.8683 29.6362C95.8683 28.9402 95.7363 28.2562 95.4723 27.5842C95.2323 26.9122 94.8723 26.3362 94.3923 25.8562C94.3443 25.8082 94.2123 25.7362 93.9963 25.6402C93.7803 25.5202 93.4803 25.4122 93.0963 25.3162C92.7363 25.1962 92.3163 25.1362 91.8363 25.1362C90.4923 25.1362 89.5083 25.6762 88.8843 26.7562C88.2603 27.8362 87.9482 29.0602 87.9482 30.4282C87.9482 30.6682 88.0083 31.1242 88.1283 31.7962C88.2723 32.4682 88.3923 32.8882 88.4883 33.0562C88.5603 33.2242 88.7403 33.4642 89.0283 33.7762C89.3403 34.0642 89.7123 34.3282 90.1443 34.5682C90.6003 34.7842 91.0683 34.8922 91.5483 34.8922C92.6283 34.8922 93.4923 34.6402 94.1403 34.1362C94.7883 33.6082 95.3043 32.9122 95.6883 32.0482ZM110.402 16.6042C109.682 16.6042 109.238 17.2042 109.07 18.4042C108.902 20.0362 108.818 21.2722 108.818 22.1122C109.298 22.1602 109.802 22.1842 110.33 22.1842C110.666 22.1842 111.098 22.1602 111.626 22.1122L112.562 22.0762C113.042 22.0762 113.402 22.1602 113.642 22.3282C113.882 22.4962 114.002 22.7722 114.002 23.1562C114.002 23.6842 113.822 24.1402 113.462 24.5242C113.126 24.8842 112.73 25.0642 112.274 25.0642C110.546 25.0642 109.382 25.1482 108.782 25.3162C108.782 26.7802 108.854 28.8562 108.998 31.5442L109.07 33.3082L109.214 36.1162C109.262 36.8122 109.19 37.3042 108.998 37.5922C108.83 37.8562 108.458 37.9882 107.882 37.9882C106.826 37.9882 106.142 37.3522 105.83 36.0802C105.638 35.1442 105.482 33.8362 105.362 32.1562C105.242 30.4762 105.182 28.9762 105.182 27.6562C105.182 26.9602 105.218 26.1682 105.29 25.2802C105.242 25.2562 105.11 25.2442 104.894 25.2442C104.678 25.2442 104.522 25.2562 104.426 25.2802C103.706 25.3282 103.178 25.3522 102.842 25.3522C102.626 25.3522 102.41 25.2082 102.194 24.9202C101.978 24.6082 101.87 24.2362 101.87 23.8042C101.87 23.5642 101.954 23.3482 102.122 23.1562C102.29 22.9402 102.494 22.7842 102.734 22.6882C103.094 22.4962 103.61 22.4002 104.282 22.4002L105.362 22.4362C105.362 19.0282 105.746 16.6642 106.514 15.3442C107.234 14.0962 108.422 13.4722 110.078 13.4722C111.038 13.4722 111.914 13.7122 112.706 14.1922C113.042 14.4082 113.294 14.6722 113.462 14.9842C113.654 15.2962 113.75 15.5962 113.75 15.8842C113.75 16.2442 113.606 16.6162 113.318 17.0002C113.054 17.3842 112.646 17.5762 112.094 17.5762C111.878 17.5762 111.602 17.4082 111.266 17.0722C111.146 16.9522 111.014 16.8442 110.87 16.7482C110.726 16.6522 110.57 16.6042 110.402 16.6042ZM116.196 29.5642C116.196 28.1002 116.52 26.8882 117.168 25.9282C117.816 24.9442 118.716 24.0202 119.868 23.1562C120.204 22.9162 120.768 22.7122 121.56 22.5442C122.352 22.3522 123.048 22.2562 123.648 22.2562C124.368 22.2562 125.124 22.4122 125.916 22.7242C126.732 23.0122 127.392 23.3482 127.896 23.7322C128.784 24.3802 129.396 25.1362 129.732 26.0002C130.068 26.8402 130.236 27.8482 130.236 29.0242C130.236 29.5282 129.948 30.0202 129.372 30.5002C128.82 30.9562 128.22 31.1842 127.572 31.1842L126.204 31.1482C125.508 31.1482 124.512 31.1722 123.216 31.2202L122.46 31.2562C121.932 31.3042 121.536 31.3282 121.272 31.3282C120.888 31.3282 120.36 31.2802 119.688 31.1842C119.784 32.3122 120.204 33.2002 120.948 33.8482C121.692 34.4722 122.496 34.7842 123.36 34.7842C124.872 34.7842 125.928 34.4842 126.528 33.8842C127.032 33.5242 127.368 33.2962 127.536 33.2002C127.704 33.1042 127.968 33.0562 128.328 33.0562C128.712 33.0562 129.048 33.2362 129.336 33.5962C129.624 33.9562 129.768 34.3162 129.768 34.6762C129.768 35.0842 129.516 35.5042 129.012 35.9362C128.532 36.3442 127.872 36.7762 127.032 37.2322C126.576 37.4242 125.952 37.5922 125.16 37.7362C124.368 37.8802 123.708 37.9522 123.18 37.9522C122.34 37.9522 121.404 37.7122 120.372 37.2322C119.34 36.7282 118.572 36.1762 118.068 35.5762C117.564 34.9762 117.12 34.1242 116.736 33.0202C116.376 31.9162 116.196 30.7642 116.196 29.5642ZM123.36 28.5922C125.064 28.5922 126.312 28.5322 127.104 28.4122C127.056 27.7162 126.84 27.1522 126.456 26.7202C126.072 26.2642 125.544 25.8802 124.872 25.5682C124.656 25.4722 124.464 25.4002 124.296 25.3522C124.128 25.3042 123.936 25.2802 123.72 25.2802C122.616 25.2802 121.68 25.5802 120.912 26.1802C120.168 26.7802 119.724 27.5482 119.58 28.4842C120.78 28.5562 122.04 28.5922 123.36 28.5922ZM143.866 29.5642C144.826 30.1162 145.498 30.6682 145.882 31.2202C146.266 31.7482 146.458 32.4442 146.458 33.3082C146.458 34.1722 146.206 34.9402 145.702 35.6122C145.198 36.2602 144.55 36.7642 143.758 37.1242C143.182 37.3882 142.462 37.5922 141.598 37.7362C140.758 37.8802 140.098 37.9522 139.618 37.9522C138.778 37.9522 137.866 37.7962 136.882 37.4842C135.898 37.1722 135.058 36.7282 134.362 36.1522C133.69 35.5762 133.354 34.9042 133.354 34.1362C133.354 33.6562 133.51 33.2842 133.822 33.0202C134.134 32.7322 134.542 32.5882 135.046 32.5882C135.454 32.5882 135.886 32.8762 136.342 33.4522C136.798 33.9562 137.326 34.3402 137.926 34.6042C138.55 34.8682 139.162 35.0002 139.762 35.0002C142.042 35.0002 143.182 34.4842 143.182 33.4522C143.182 33.2362 143.11 33.0322 142.966 32.8402C142.822 32.6242 142.69 32.4802 142.57 32.4082C142.354 32.2402 142.054 32.0962 141.67 31.9762C141.286 31.8562 140.902 31.7602 140.518 31.6882C140.134 31.5922 139.846 31.5202 139.654 31.4722C139.462 31.4242 139.054 31.3402 138.43 31.2202C137.83 31.1002 137.254 30.8962 136.702 30.6082C135.79 30.1762 135.046 29.6482 134.47 29.0242C133.918 28.4002 133.642 27.5962 133.642 26.6122C133.642 26.0602 133.774 25.5082 134.038 24.9562C134.326 24.3802 134.71 23.9482 135.19 23.6602C135.91 23.2042 136.702 22.8562 137.566 22.6162C138.43 22.3762 139.234 22.2562 139.978 22.2562C140.578 22.2562 141.25 22.3162 141.994 22.4362C142.762 22.5562 143.314 22.7242 143.65 22.9402C144.274 23.2762 144.73 23.6242 145.018 23.9842C145.306 24.3442 145.45 24.8002 145.45 25.3522C145.45 25.6162 145.39 25.8802 145.27 26.1442C145.15 26.3842 145.006 26.5522 144.838 26.6482C144.454 26.7922 144.118 26.8642 143.83 26.8642C143.614 26.8642 143.434 26.8282 143.29 26.7562C143.146 26.6602 143.014 26.5642 142.894 26.4682C142.798 26.3722 142.738 26.3122 142.714 26.2882C142.402 25.9522 142.054 25.6882 141.67 25.4962C141.286 25.3042 140.722 25.2082 139.978 25.2082C139.498 25.2082 139.03 25.2802 138.574 25.4242C138.142 25.5442 137.806 25.7002 137.566 25.8922C137.374 26.0362 137.242 26.1682 137.17 26.2882C137.098 26.3842 137.062 26.5162 137.062 26.6842C137.062 27.3562 137.734 27.8482 139.078 28.1602C140.446 28.4722 141.166 28.6402 141.238 28.6642C141.382 28.7122 141.778 28.8322 142.426 29.0242C143.098 29.2162 143.578 29.3962 143.866 29.5642ZM151.613 14.6962C152.453 14.7682 153.173 14.9962 153.773 15.3802C154.397 15.7402 154.709 16.2922 154.709 17.0362C154.709 17.5882 154.457 18.0322 153.953 18.3682C153.449 18.6802 152.825 18.8362 152.081 18.8362C151.385 18.8362 150.905 18.6562 150.641 18.2962C150.377 17.9362 150.245 17.5642 150.245 17.1802C150.245 16.4842 150.329 15.8962 150.497 15.4162C150.665 14.9122 151.037 14.6722 151.613 14.6962ZM150.893 29.5642V28.5202C150.893 27.3202 150.833 26.2282 150.713 25.2442C150.617 24.2362 150.557 23.6122 150.533 23.3722C150.557 23.1082 150.737 22.8562 151.073 22.6162C151.409 22.3762 151.709 22.2562 151.973 22.2562C152.429 22.2562 152.885 22.3522 153.341 22.5442C153.821 22.7122 154.121 22.9282 154.241 23.1922C154.361 24.0802 154.421 24.7642 154.421 25.2442C154.421 26.3002 154.469 28.0282 154.565 30.4282L154.601 31.8322L154.673 33.2002C154.697 33.5842 154.721 34.0402 154.745 34.5682C154.769 35.0962 154.781 35.6962 154.781 36.3682C154.781 36.8242 154.553 37.2082 154.097 37.5202C153.665 37.8322 153.209 37.9882 152.729 37.9882C152.033 37.9882 151.541 37.8322 151.253 37.5202C150.989 37.2082 150.857 36.7162 150.857 36.0442L150.893 29.5642ZM173.246 26.2522C173.438 26.5882 173.594 27.0802 173.714 27.7282C173.834 28.3522 173.894 28.9162 173.894 29.4202C173.894 30.3562 173.69 31.6882 173.282 33.4162C171.626 36.4402 169.178 37.9522 165.938 37.9522C164.738 37.9522 163.514 37.5562 162.266 36.7642C161.018 35.9722 160.154 35.0602 159.674 34.0282C159.026 31.9642 158.702 30.6562 158.702 30.1042C158.702 29.1442 158.906 28.1242 159.314 27.0442C159.746 25.9642 160.286 25.0282 160.934 24.2362C161.342 23.6842 162.074 23.2162 163.13 22.8322C164.186 22.4242 165.146 22.2202 166.01 22.2202C167.69 22.2202 169.118 22.5442 170.294 23.1922C171.47 23.8162 172.454 24.8362 173.246 26.2522ZM170.114 32.0482C170.234 31.7362 170.294 30.9322 170.294 29.6362C170.294 28.9402 170.162 28.2562 169.898 27.5842C169.658 26.9122 169.298 26.3362 168.818 25.8562C168.77 25.8082 168.638 25.7362 168.422 25.6402C168.206 25.5202 167.906 25.4122 167.522 25.3162C167.162 25.1962 166.742 25.1362 166.262 25.1362C164.918 25.1362 163.934 25.6762 163.31 26.7562C162.686 27.8362 162.374 29.0602 162.374 30.4282C162.374 30.6682 162.434 31.1242 162.554 31.7962C162.698 32.4682 162.818 32.8882 162.914 33.0562C162.986 33.2242 163.166 33.4642 163.454 33.7762C163.766 34.0642 164.138 34.3282 164.57 34.5682C165.026 34.7842 165.494 34.8922 165.974 34.8922C167.054 34.8922 167.918 34.6402 168.566 34.1362C169.214 33.6082 169.73 32.9122 170.114 32.0482ZM193.828 35.0362C193.948 35.0842 194.14 35.1442 194.404 35.2162C194.668 35.2882 194.86 35.3602 194.98 35.4322C195.1 35.5042 195.16 35.6122 195.16 35.7562C195.184 36.3322 194.968 36.8122 194.512 37.1962C194.08 37.5562 193.564 37.7362 192.964 37.7362C192.028 37.7362 191.296 37.4842 190.768 36.9802C190.24 36.4762 189.856 35.7082 189.616 34.6762C189.52 34.2682 189.472 33.7042 189.472 32.9842C189.472 32.5762 189.496 31.9162 189.544 31.0042C189.592 30.0442 189.616 29.2762 189.616 28.7002C189.616 27.8602 189.376 27.1282 188.896 26.5042C188.44 25.8562 187.792 25.5322 186.952 25.5322C186.448 25.5322 185.92 25.6882 185.368 26.0002C184.816 26.2882 184.432 26.6482 184.216 27.0802C183.856 27.7762 183.604 28.5322 183.46 29.3482C183.196 30.7882 183.064 32.2882 183.064 33.8482C183.064 34.5922 183.076 35.1682 183.1 35.5762C183.1 35.6722 183.1 35.8642 183.1 36.1522C183.124 36.4162 183.1 36.6682 183.028 36.9082C182.98 37.1242 182.884 37.3282 182.74 37.5202C182.62 37.6402 182.428 37.7362 182.164 37.8082C181.924 37.9042 181.696 37.9522 181.48 37.9522C181.144 37.9522 180.724 37.8082 180.22 37.5202C179.716 37.2322 179.428 36.9082 179.356 36.5482L179.32 35.9362C179.32 35.7202 179.344 35.4682 179.392 35.1802C179.68 33.5002 179.824 32.0362 179.824 30.7882C179.824 30.2362 179.812 29.8042 179.788 29.4922L179.752 27.8002C179.752 27.2242 179.608 26.6722 179.32 26.1442C179.032 25.5922 178.696 25.3162 178.312 25.3162C178.192 25.3162 178.024 25.3642 177.808 25.4602C177.592 25.5322 177.412 25.5682 177.268 25.5682C177.028 25.5682 176.764 25.4482 176.476 25.2082C176.212 24.9682 176.08 24.7162 176.08 24.4522C176.08 23.9482 176.248 23.5402 176.584 23.2282C176.944 22.9402 177.292 22.7122 177.628 22.5442C177.988 22.3762 178.396 22.2922 178.852 22.2922C179.236 22.2922 179.548 22.3282 179.788 22.4002C180.028 22.4722 180.352 22.6282 180.76 22.8682C180.976 22.9882 181.228 23.2522 181.516 23.6602C181.804 24.0682 182.044 24.6442 182.236 25.3882C182.86 24.2362 183.628 23.4322 184.54 22.9762C185.476 22.4962 186.664 22.2562 188.104 22.2562C188.656 22.2562 189.244 22.4362 189.868 22.7962C190.516 23.1562 191.068 23.5762 191.524 24.0562C191.956 24.5842 192.316 25.2442 192.604 26.0362C192.892 26.8042 193.036 27.5002 193.036 28.1242C193.036 28.4842 193.012 29.0722 192.964 29.8882C192.892 30.5362 192.856 31.2202 192.856 31.9402C192.856 33.6202 193.18 34.6522 193.828 35.0362ZM211.447 37.9522C210.631 37.9522 210.007 37.8322 209.575 37.5922C209.143 37.3282 208.675 36.8482 208.171 36.1522C207.547 36.7042 206.611 37.1482 205.363 37.4842C204.139 37.8202 203.083 37.9882 202.195 37.9882C200.731 37.9882 199.543 37.5922 198.631 36.8002C197.743 35.9842 197.299 34.7962 197.299 33.2362C197.299 32.5642 197.479 31.9522 197.839 31.4002C198.223 30.8242 198.715 30.3202 199.315 29.8882C199.987 29.4322 200.779 29.0722 201.691 28.8082C202.627 28.5442 203.479 28.4122 204.247 28.4122C205.543 28.4122 206.695 28.5322 207.703 28.7722V28.7362C207.703 27.4402 207.379 26.5522 206.731 26.0722C206.107 25.5682 205.099 25.3162 203.707 25.3162C202.819 25.3162 202.051 25.7122 201.403 26.5042C201.163 26.8162 200.659 26.9722 199.891 26.9722C199.507 26.9722 199.219 26.8162 199.027 26.5042C198.859 26.1682 198.775 25.8322 198.775 25.4962C198.775 24.8002 199.063 24.2002 199.639 23.6962C200.239 23.1922 200.959 22.8202 201.799 22.5802C202.639 22.3162 203.419 22.1842 204.139 22.1842C204.835 22.1842 205.663 22.3282 206.623 22.6162C207.583 22.9042 208.363 23.2882 208.963 23.7682C209.683 24.3922 210.235 25.1242 210.619 25.9642C211.027 26.7802 211.231 27.6802 211.231 28.6642C211.231 28.9762 211.207 29.4442 211.159 30.0682C211.111 30.7882 211.087 31.3762 211.087 31.8322C211.087 32.0482 211.063 32.3242 211.015 32.6602C210.967 33.0922 210.943 33.4522 210.943 33.7402C210.943 34.0522 211.039 34.3522 211.231 34.6402C211.423 34.9282 211.687 35.1682 212.023 35.3602C212.335 35.5282 212.539 35.7082 212.635 35.9002C212.731 36.0922 212.779 36.3082 212.779 36.5482C212.779 36.7882 212.623 37.0882 212.311 37.4482C212.023 37.7842 211.735 37.9522 211.447 37.9522ZM204.247 31.0762C203.311 31.0762 202.483 31.2562 201.763 31.6162C201.043 31.9762 200.683 32.6122 200.683 33.5242C200.683 33.9802 200.839 34.3642 201.151 34.6762C201.487 34.9882 201.847 35.1442 202.231 35.1442C203.263 35.1442 204.127 35.0362 204.823 34.8202C205.519 34.6042 206.359 34.2082 207.343 33.6322C207.463 33.2482 207.535 32.7082 207.559 32.0122C207.559 31.7482 207.571 31.5442 207.595 31.4002C206.299 31.1842 205.183 31.0762 204.247 31.0762ZM219.518 32.2282C219.518 33.1402 219.65 33.8482 219.914 34.3522C220.202 34.8322 220.562 35.0722 220.994 35.0722C221.234 35.0722 221.462 35.0602 221.678 35.0362C221.894 34.9882 222.11 34.9642 222.326 34.9642C222.566 34.9642 222.77 35.0842 222.938 35.3242C223.13 35.5642 223.226 35.8282 223.226 36.1162C223.226 36.6922 222.95 37.1482 222.398 37.4842C221.87 37.7962 221.15 37.9522 220.238 37.9522C219.59 37.9522 218.93 37.7602 218.258 37.3762C217.61 36.9682 217.07 36.3442 216.638 35.5042C216.206 34.6402 215.99 33.5722 215.99 32.3002C215.99 29.5642 216.038 27.2482 216.134 25.3522C216.254 23.0962 216.314 20.2522 216.314 16.8202C216.314 15.7402 216.374 14.9842 216.494 14.5522C216.638 14.2162 216.866 13.9642 217.178 13.7962C217.514 13.6042 217.862 13.5082 218.222 13.5082C218.582 13.5082 218.894 13.5682 219.158 13.6882C219.446 13.8082 219.638 14.0002 219.734 14.2642C219.83 14.5522 219.89 14.8402 219.914 15.1282C219.962 15.3922 219.986 15.7762 219.986 16.2802C219.986 17.2642 219.95 18.2122 219.878 19.1242C219.83 20.2282 219.806 21.0322 219.806 21.5362C219.614 25.7602 219.518 29.3242 219.518 32.2282Z" fill="#444444"/>
</svg>
