<svg width="196" height="60" viewBox="0 0 196 60" fill="none" xmlns="http://www.w3.org/2000/svg">
<path d="M10.8569 37.6611L24.6338 11.25C24.6777 11.1621 24.729 11.0962 24.7876 11.0522C24.8462 10.9937 24.9121 10.9424 24.9854 10.8984C25.0732 10.8691 25.1538 10.8618 25.2271 10.8765C25.3003 10.8911 25.3882 10.9131 25.4907 10.9424L27.5562 11.4697L22.7441 47.7466C23.3594 47.6733 23.916 47.6221 24.4141 47.5928C24.9268 47.5781 25.3296 47.5708 25.6226 47.5708C26.062 47.5708 26.3843 47.5928 26.5894 47.6367C26.8091 47.6953 26.9409 47.7686 26.9849 47.8564C27.0435 47.9443 27.0361 48.0469 26.9629 48.1641C26.9043 48.2959 26.8164 48.4424 26.6992 48.6035C26.5674 48.75 26.4648 48.8818 26.3916 48.999C26.333 49.1162 26.2451 49.2188 26.1279 49.3066C26.0107 49.4092 25.8423 49.4971 25.6226 49.5703C25.4175 49.6436 25.1025 49.7095 24.6777 49.7681C24.3848 49.812 23.9526 49.8486 23.3813 49.8779C22.8101 49.9219 22.1655 49.9658 21.4478 50.0098C20.7446 50.0684 20.0049 50.1123 19.2285 50.1416C18.4521 50.1855 17.7197 50.2222 17.0312 50.2515C16.3574 50.2954 15.7568 50.332 15.2295 50.3613C14.7168 50.3906 14.3652 50.4053 14.1748 50.4053C13.5596 50.4492 13.23 50.3833 13.186 50.2075C13.1421 50.0464 13.3105 49.7534 13.6914 49.3286C13.999 48.9185 14.7021 48.6475 15.8008 48.5156C15.9619 48.4863 16.2402 48.4424 16.6357 48.3838C17.0312 48.3398 17.5073 48.2886 18.064 48.23L19.5361 38.5181L11.6699 39.2432L8.02246 46.2524C8.93066 46.1353 9.58984 46.084 10 46.0986C10.4102 46.1279 10.5786 46.2451 10.5054 46.4502C10.4028 46.6699 10.249 46.9263 10.0439 47.2192C9.85352 47.5122 9.56787 47.7612 9.18701 47.9663C9.05518 48.0249 8.81348 48.0835 8.46191 48.1421C8.11035 48.2007 7.7002 48.252 7.23145 48.2959C6.7627 48.3545 6.27197 48.3984 5.75928 48.4277C5.23193 48.4717 4.74121 48.5083 4.28711 48.5376C3.81836 48.5815 3.4082 48.6108 3.05664 48.6255C2.70508 48.6548 2.4707 48.6768 2.35352 48.6914C1.9873 48.7207 1.84082 48.6108 1.91406 48.3618C1.9873 48.1274 2.25098 47.8345 2.70508 47.4829C2.77832 47.4243 2.87354 47.3584 2.99072 47.2852C3.09326 47.2119 3.26904 47.1313 3.51807 47.0435C3.76709 46.9556 4.104 46.8677 4.52881 46.7798C4.95361 46.6919 5.51758 46.5967 6.2207 46.4941L9.95605 39.375L7.4292 39.5947C7.32666 39.5947 7.25342 39.5508 7.20947 39.4629C7.15088 39.3457 7.16553 39.2432 7.25342 39.1553L7.4292 38.8257C7.75146 38.313 8.20557 37.998 8.7915 37.8809L10.8569 37.6611ZM19.7998 36.5405L22.5464 18.1274L12.6147 37.4414L19.7998 36.5405ZM41.355 22.5C41.355 22.8223 41.2598 23.2104 41.0693 23.6646C40.8789 24.104 40.6299 24.5288 40.3223 24.939C40.0293 25.3345 39.6997 25.6714 39.3335 25.9497C38.9819 26.228 38.6377 26.3672 38.3008 26.3672C37.8467 26.3672 37.4585 26.228 37.1362 25.9497C36.8286 25.6714 36.6748 25.3784 36.6748 25.0708C36.6748 24.939 36.7188 24.7412 36.8066 24.4775C36.9092 24.2139 37.0337 23.9282 37.1802 23.6206C37.3413 23.2983 37.5244 22.9761 37.7295 22.6538C37.9492 22.3169 38.1763 22.0166 38.4106 21.7529C38.6597 21.4746 38.9014 21.2549 39.1357 21.0938C39.3848 20.918 39.6265 20.8301 39.8608 20.8301C40.4468 20.8301 40.8423 20.9692 41.0474 21.2476C41.2524 21.5259 41.355 21.9434 41.355 22.5ZM38.5205 37.7051C38.0078 38.8623 37.4438 39.9243 36.8286 40.8911C36.228 41.8433 35.6055 42.6636 34.9609 43.3521C34.3164 44.0259 33.6499 44.5532 32.9614 44.9341C32.2876 45.3149 31.6211 45.5054 30.9619 45.5054C30.4639 45.5054 30.0391 45.3955 29.6875 45.1758C29.3359 44.9707 29.0503 44.6851 28.8306 44.3188C28.5962 43.9526 28.4277 43.5278 28.3252 43.0444C28.2227 42.5464 28.1714 42.0117 28.1714 41.4404C28.1714 40.3711 28.3179 39.3164 28.6108 38.2764C28.9038 37.2217 29.2773 36.1963 29.7314 35.2002C30.2002 34.1895 30.7275 33.2007 31.3135 32.2339C31.8994 31.2671 32.4854 30.3296 33.0713 29.4214C33.2031 29.2017 33.3643 29.0039 33.5547 28.8281C33.7451 28.6523 33.9282 28.5645 34.104 28.5645C34.353 28.5645 34.6021 28.6084 34.8511 28.6963C35.1001 28.7842 35.3271 28.9014 35.5322 29.0479C35.7373 29.1797 35.8984 29.3335 36.0156 29.5093C36.1475 29.6704 36.2134 29.8389 36.2134 30.0146C36.2134 30.2197 36.0889 30.5566 35.8398 31.0254C35.5908 31.4941 35.2759 32.0581 34.895 32.7173C34.5142 33.3618 34.104 34.0796 33.6646 34.8706C33.2397 35.6616 32.8369 36.4819 32.4561 37.3315C32.0752 38.1812 31.7603 39.0381 31.5112 39.9023C31.2622 40.752 31.1377 41.5649 31.1377 42.3413C31.1377 42.5317 31.145 42.7222 31.1597 42.9126C31.189 43.0884 31.2402 43.2495 31.3135 43.396C31.4014 43.5278 31.5259 43.6377 31.687 43.7256C31.8628 43.7988 32.0972 43.8354 32.3901 43.8354C32.6978 43.8354 33.0786 43.6523 33.5327 43.2861C34.0015 42.9199 34.4849 42.4365 34.9829 41.8359C35.4956 41.2207 36.001 40.5322 36.499 39.7705C37.0117 38.9941 37.4585 38.2031 37.8394 37.3975C37.9565 37.1631 38.0884 37.0459 38.2349 37.0459C38.3374 37.0459 38.4253 37.0752 38.4985 37.1338C38.5718 37.1924 38.6084 37.2803 38.6084 37.3975C38.6084 37.4854 38.5791 37.5879 38.5205 37.7051Z" fill="#2A7252"/>
<path d="M47.6611 35.0024C46.9141 36.8774 46.1816 38.7817 45.4639 40.7153C44.7607 42.6343 44.0649 44.6045 43.3765 46.626C43.9917 46.582 44.519 46.5381 44.9585 46.4941C45.3979 46.4648 45.7275 46.4502 45.9473 46.4502C46.1963 46.4502 46.3208 46.4941 46.3208 46.582V46.626C46.2183 46.875 46.0645 47.146 45.8594 47.439C45.6543 47.7319 45.3247 47.981 44.8706 48.186C44.7241 48.2593 44.4238 48.3252 43.9697 48.3838C43.5303 48.4424 43.0029 48.4937 42.3877 48.5376C41.7871 48.5962 41.1426 48.6475 40.4541 48.6914C39.7803 48.7354 39.1431 48.772 38.5425 48.8013C37.9419 48.8306 37.4219 48.8525 36.9824 48.8672C36.5283 48.8818 36.2354 48.8965 36.1035 48.9111H35.9277C35.6787 48.9111 35.5542 48.8525 35.5542 48.7354C35.5542 48.4863 35.8691 48.1421 36.499 47.7026C36.5869 47.6147 36.7773 47.4902 37.0703 47.3291C37.3486 47.168 37.8174 47.0215 38.4766 46.8896C38.7256 46.2891 39.0845 45.4028 39.5532 44.231C40.0366 43.0591 40.5859 41.7188 41.2012 40.21C41.8311 38.6865 42.5049 37.0532 43.2227 35.3101C43.9404 33.5522 44.6655 31.7944 45.3979 30.0366C46.1304 28.2642 46.8481 26.5503 47.5513 24.895C48.2544 23.2251 48.8989 21.7163 49.4849 20.3687C50.0708 19.021 50.5762 17.8931 51.001 16.9849C51.4258 16.0767 51.7261 15.498 51.9019 15.249C51.9897 15.1318 52.1655 15.0146 52.4292 14.8975C52.6929 14.7803 52.9932 14.6777 53.3301 14.5898C53.667 14.502 54.0039 14.436 54.3408 14.3921C54.6924 14.3335 55 14.3042 55.2637 14.3042C55.6738 14.3042 55.9741 14.3848 56.1646 14.5459C56.1938 14.5459 56.2085 14.5898 56.2085 14.6777C56.2085 14.7949 56.1499 14.9854 56.0327 15.249C55.9302 15.498 55.791 15.8057 55.6152 16.1719C55.4541 16.5381 55.2637 16.9556 55.0439 17.4243C54.8389 17.8784 54.6265 18.3545 54.4067 18.8525C53.3228 21.3428 52.2534 23.8257 51.1987 26.3013C50.1587 28.7769 49.1333 31.2891 48.1226 33.8379C48.2397 33.8672 48.335 33.8818 48.4082 33.8818C48.4961 33.8818 48.5767 33.8818 48.6499 33.8818C50.2173 33.8818 51.6309 33.6328 52.8906 33.1348C54.1504 32.6221 55.2637 31.9482 56.2305 31.1133C57.1973 30.2637 58.0249 29.2896 58.7134 28.1909C59.4019 27.0776 59.9658 25.9204 60.4053 24.7192C60.8594 23.5181 61.189 22.3096 61.394 21.0938C61.5991 19.8633 61.7017 18.7134 61.7017 17.644C61.7017 16.8237 61.5698 16.0767 61.3062 15.4028C61.0571 14.729 60.6982 14.1504 60.2295 13.667C59.7607 13.1836 59.1968 12.8101 58.5376 12.5464C57.8931 12.2827 57.1753 12.1509 56.3843 12.1509C54.6265 12.1509 52.9712 12.4585 51.4185 13.0737C49.8804 13.689 48.54 14.5532 47.3975 15.6665C46.2549 16.7651 45.354 18.0908 44.6948 19.6436C44.0356 21.1963 43.7061 22.9102 43.7061 24.7852C43.7061 25.0342 43.6475 25.2539 43.5303 25.4443C43.4131 25.6348 43.2153 25.73 42.937 25.73C42.7466 25.73 42.4976 25.6567 42.1899 25.5103C41.8823 25.3491 41.5747 25.144 41.2671 24.895C40.9741 24.6313 40.7178 24.3311 40.498 23.9941C40.293 23.6426 40.1904 23.2764 40.1904 22.8955C40.1904 21.8555 40.4321 20.8374 40.9155 19.8413C41.4136 18.8306 42.0801 17.8711 42.915 16.9629C43.7646 16.0547 44.7534 15.2197 45.8813 14.458C47.0093 13.6963 48.2031 13.0371 49.4629 12.4805C50.7373 11.9238 52.041 11.4917 53.374 11.1841C54.7217 10.8618 56.0254 10.7007 57.2852 10.7007C58.7207 10.7007 59.9951 10.9131 61.1084 11.3379C62.2363 11.748 63.1812 12.3267 63.9429 13.0737C64.7192 13.8208 65.3052 14.7144 65.7007 15.7544C66.0962 16.7944 66.2939 17.9297 66.2939 19.1602C66.2939 20.5225 66.0596 21.8628 65.5908 23.1812C65.1367 24.4995 64.4995 25.7446 63.6792 26.9165C62.8589 28.0884 61.8848 29.1724 60.7568 30.1685C59.6436 31.1499 58.4277 31.9995 57.1094 32.7173C55.791 33.4351 54.3994 33.999 52.9346 34.4092C51.4844 34.8047 50.0122 35.0024 48.5181 35.0024H47.6611ZM75.7642 37.7051C75.5591 38.1006 75.2954 38.562 74.9731 39.0894C74.6509 39.6021 74.2847 40.1367 73.8745 40.6934C73.4644 41.2354 73.0176 41.7773 72.5342 42.3193C72.0654 42.8613 71.5747 43.3447 71.062 43.7695C70.564 44.1797 70.0513 44.5166 69.5239 44.7803C69.0112 45.0439 68.5132 45.1758 68.0298 45.1758C67.7222 45.1758 67.4146 45.1318 67.1069 45.0439C66.814 44.9561 66.543 44.8242 66.2939 44.6484C66.0596 44.458 65.8691 44.2236 65.7227 43.9453C65.5762 43.667 65.5029 43.3301 65.5029 42.9346C65.5029 42.3926 65.6055 41.8213 65.8105 41.2207C66.0303 40.6055 66.3013 39.9902 66.6235 39.375C66.9604 38.7451 67.312 38.1299 67.6782 37.5293C68.0591 36.9287 68.4106 36.3574 68.7329 35.8154C69.0698 35.2588 69.3408 34.7534 69.5459 34.2993C69.7656 33.8452 69.8755 33.4497 69.8755 33.1128C69.8755 32.981 69.7949 32.8784 69.6338 32.8052C69.4873 32.7173 69.2822 32.6733 69.0186 32.6733C68.8867 32.6733 68.7109 32.6953 68.4912 32.7393C68.2861 32.7832 68.0518 32.8345 67.7881 32.8931C67.5244 32.9517 67.2388 33.0176 66.9312 33.0908C66.6382 33.1494 66.3452 33.2007 66.0522 33.2446C65.5981 34.3433 65.144 35.3687 64.6899 36.3208C64.2358 37.2729 63.8477 38.02 63.5254 38.562C63.4082 38.7671 63.313 38.9136 63.2397 39.0015C63.1519 39.0747 63.0493 39.1113 62.9321 39.1113C62.7271 39.1113 62.6245 39.0161 62.6245 38.8257C62.6245 38.7524 62.6392 38.6719 62.6685 38.584C62.6831 38.4814 62.7124 38.3862 62.7563 38.2983C63.1812 37.5073 63.584 36.7017 63.9648 35.8813C64.3604 35.0464 64.7412 34.2041 65.1074 33.3545C64.7705 33.3545 64.5288 33.2886 64.3823 33.1567C64.2358 33.0103 64.1626 32.7905 64.1626 32.4976C64.1626 32.1899 64.2358 31.8091 64.3823 31.355C64.5435 30.8862 64.7412 30.4028 64.9756 29.9048C65.21 29.3921 65.4736 28.8867 65.7666 28.3887C66.0596 27.876 66.3525 27.4219 66.6455 27.0264C66.9385 26.6162 67.2021 26.2866 67.4365 26.0376C67.6855 25.7739 67.8833 25.6421 68.0298 25.6421C68.147 25.6421 68.2642 25.686 68.3813 25.7739C68.4985 25.8618 68.5571 25.9863 68.5571 26.1475C68.5571 26.3672 68.4912 26.7114 68.3594 27.1802C68.2275 27.6489 68.0591 28.1909 67.854 28.8062C68.4692 28.7183 69.0039 28.6523 69.458 28.6084C69.9268 28.5498 70.2856 28.5205 70.5347 28.5205C71.1353 28.5205 71.6333 28.6377 72.0288 28.8721C72.4243 29.0918 72.6221 29.3848 72.6221 29.751C72.6221 29.9707 72.5415 30.3076 72.3804 30.7617C72.2192 31.2012 72.0215 31.7139 71.7871 32.2998C71.5527 32.8857 71.2964 33.5229 71.0181 34.2114C70.7397 34.8853 70.4834 35.5737 70.249 36.2769C70.0146 36.9653 69.8169 37.6392 69.6558 38.2983C69.4946 38.9575 69.4141 39.5581 69.4141 40.1001C69.4141 40.5249 69.4946 40.8838 69.6558 41.1768C69.8315 41.4697 70.0952 41.6162 70.4468 41.6162C70.7104 41.6162 71.0034 41.5576 71.3257 41.4404C71.6626 41.3086 72.0288 41.0889 72.4243 40.7812C72.8198 40.459 73.2373 40.0269 73.6768 39.4849C74.1309 38.9282 74.5996 38.2324 75.083 37.3975C75.2002 37.1631 75.3394 37.0459 75.5005 37.0459C75.5884 37.0459 75.6689 37.0752 75.7422 37.1338C75.8154 37.1924 75.8521 37.2803 75.8521 37.3975C75.8521 37.4854 75.8228 37.5879 75.7642 37.7051ZM89.563 37.3096C89.3872 37.749 89.1455 38.2324 88.8379 38.7598C88.5449 39.2871 88.186 39.7778 87.7612 40.2319C87.3511 40.6714 86.8823 41.0449 86.355 41.3525C85.8276 41.6602 85.2344 41.814 84.5752 41.814C84.3848 41.814 84.2017 41.7993 84.0259 41.77C83.8647 41.7407 83.7036 41.6895 83.5425 41.6162C83.1323 42.2314 82.6929 42.8101 82.2241 43.3521C81.77 43.894 81.2793 44.3701 80.752 44.7803C80.2246 45.1758 79.668 45.4907 79.082 45.7251C78.5107 45.9595 77.9102 46.0767 77.2803 46.0767C76.6943 46.0767 76.1743 45.9741 75.7202 45.769C75.2808 45.564 74.9072 45.2783 74.5996 44.9121C74.292 44.5459 74.0649 44.1138 73.9185 43.6157C73.7573 43.103 73.6768 42.5464 73.6768 41.9458C73.6768 41.3745 73.7573 40.6934 73.9185 39.9023C74.0649 39.1113 74.3213 38.2764 74.6875 37.3975C75.0391 36.5186 75.4932 35.625 76.0498 34.7168C76.6211 33.8086 77.3169 32.9517 78.1372 32.146C78.9575 31.3257 79.9097 30.5933 80.9937 29.9487C82.0923 29.2896 83.3447 28.7695 84.751 28.3887H84.9268C85.1172 28.3887 85.293 28.4253 85.4541 28.4985C85.6152 28.5718 85.7544 28.667 85.8716 28.7842C85.9888 28.9014 86.0767 29.0259 86.1353 29.1577C86.2085 29.2896 86.2451 29.4067 86.2451 29.5093C86.2451 29.7437 86.1792 29.9121 86.0474 30.0146C85.9155 30.1172 85.7251 30.1904 85.4761 30.2344C85.3442 30.2637 85.1172 30.3076 84.7949 30.3662C84.4873 30.4102 84.0991 30.5347 83.6304 30.7397C83.1763 30.9302 82.6636 31.2378 82.0923 31.6626C81.521 32.0728 80.9204 32.6514 80.2905 33.3984C79.8657 33.8965 79.4556 34.4971 79.0601 35.2002C78.6792 35.8887 78.3423 36.6064 78.0493 37.3535C77.7563 38.1006 77.5146 38.8477 77.3242 39.5947C77.1484 40.3271 77.0605 40.9863 77.0605 41.5723C77.0605 42.3486 77.2437 42.9565 77.6099 43.396C77.9761 43.8354 78.4082 44.0552 78.9062 44.0552C79.4482 44.0552 80.0269 43.7695 80.6421 43.1982C81.272 42.6123 81.8945 41.8359 82.5098 40.8691C82.2168 40.5029 81.9751 40.0488 81.7847 39.5068C81.5942 38.9648 81.499 38.3203 81.499 37.5732C81.499 36.7529 81.6016 35.9326 81.8066 35.1123C82.0264 34.292 82.312 33.5522 82.6636 32.8931C83.0151 32.2339 83.4106 31.6992 83.8501 31.2891C84.3042 30.8643 84.7656 30.6519 85.2344 30.6519C85.6885 30.6519 86.0254 30.8569 86.2451 31.2671C86.4795 31.6626 86.5967 32.1899 86.5967 32.8491C86.5967 33.2886 86.5381 33.8159 86.4209 34.4312C86.3037 35.0317 86.1353 35.6836 85.9155 36.3867C85.6958 37.0898 85.4248 37.8149 85.1025 38.562C84.7949 39.3091 84.436 40.0415 84.0259 40.7593C84.231 40.8618 84.4727 40.9131 84.751 40.9131C85.2637 40.9131 85.7178 40.7959 86.1133 40.5615C86.5234 40.3271 86.8896 40.0269 87.2119 39.6606C87.5342 39.2944 87.8271 38.8843 88.0908 38.4302C88.3545 37.9761 88.6035 37.5293 88.8379 37.0898C88.9844 36.7822 89.1382 36.6284 89.2993 36.6284C89.3872 36.6284 89.4678 36.6577 89.541 36.7163C89.6143 36.7749 89.6509 36.8481 89.6509 36.936C89.6509 37.0679 89.6216 37.1924 89.563 37.3096ZM82.7734 38.1665C82.7734 38.5181 82.7954 38.8403 82.8394 39.1333C82.8833 39.4263 82.9639 39.6753 83.0811 39.8804C83.374 39.3677 83.645 38.8477 83.894 38.3203C84.1431 37.7783 84.3848 37.2144 84.6191 36.6284C84.8242 36.0864 84.978 35.6396 85.0806 35.2881C85.1831 34.9219 85.2344 34.6362 85.2344 34.4312C85.2344 33.9478 85.0732 33.7061 84.751 33.7061C84.5312 33.7061 84.3042 33.8232 84.0698 34.0576C83.8501 34.292 83.6377 34.6143 83.4326 35.0244C83.2422 35.4346 83.0811 35.9106 82.9492 36.4526C82.832 36.98 82.7734 37.5513 82.7734 38.1665ZM93.6499 41.814C93.5767 43.2788 93.3862 44.6631 93.0786 45.9668C92.7856 47.2852 92.4121 48.501 91.958 49.6143C91.5186 50.7422 91.0278 51.7529 90.4858 52.6465C89.9585 53.5547 89.4238 54.3237 88.8818 54.9536C88.3252 55.5835 87.7979 56.0669 87.2998 56.4038C86.8018 56.7554 86.3696 56.9312 86.0034 56.9312C85.6958 56.9312 85.4321 56.8506 85.2124 56.6895C84.9927 56.5283 84.8169 56.3013 84.6851 56.0083C84.5532 55.73 84.458 55.4004 84.3994 55.0195C84.3262 54.6387 84.2896 54.2212 84.2896 53.7671C84.2896 52.4634 84.458 50.9985 84.7949 49.3726C85.1172 47.7612 85.564 46.062 86.1353 44.2749C86.7065 42.4731 87.373 40.6128 88.1348 38.6938C88.8818 36.7749 89.6802 34.8633 90.5298 32.959C91.3794 31.0547 92.2437 29.187 93.1226 27.356C94.0161 25.5249 94.873 23.7891 95.6934 22.1484C96.5283 20.5078 97.3047 19.0063 98.0225 17.644C98.7549 16.2671 99.3848 15.0806 99.9121 14.0845C100.103 13.6743 100.33 13.3301 100.593 13.0518C100.872 12.7588 101.121 12.6196 101.34 12.6343C101.428 12.6343 101.531 12.7002 101.648 12.832C101.765 12.9492 101.868 13.1177 101.956 13.3374C102.058 13.5571 102.146 13.8135 102.219 14.1064C102.292 14.3994 102.329 14.707 102.329 15.0293C102.329 15.6885 102.249 16.3403 102.087 16.9849C101.926 17.6294 101.721 18.2593 101.472 18.8745C101.238 19.4897 100.981 20.0903 100.703 20.6763C100.425 21.2622 100.161 21.8262 99.9121 22.3682C99.707 22.793 99.4287 23.3276 99.0771 23.9722C98.7256 24.6167 98.3301 25.3198 97.8906 26.0815C97.4658 26.8286 97.0117 27.6196 96.5283 28.4546C96.0596 29.2896 95.5908 30.1099 95.1221 30.9155C94.668 31.7212 94.2358 32.4976 93.8257 33.2446C93.4155 33.9917 93.0713 34.6582 92.793 35.2441C92.9395 35.5078 93.064 35.8447 93.1665 36.2549C93.2837 36.6504 93.3789 37.0825 93.4521 37.5513C93.54 38.02 93.5986 38.5181 93.6279 39.0454C93.6719 39.5728 93.6938 40.1001 93.6938 40.6274V40.9131C93.7817 40.9424 93.8696 40.957 93.9575 40.957C94.0601 40.957 94.1699 40.957 94.2871 40.957C94.8145 40.957 95.2905 40.8472 95.7153 40.6274C96.1401 40.4077 96.521 40.1147 96.8579 39.7485C97.2095 39.3823 97.5244 38.9722 97.8027 38.5181C98.0811 38.0493 98.3301 37.5732 98.5498 37.0898C98.6963 36.7822 98.8501 36.6284 99.0112 36.6284C99.0991 36.6284 99.1797 36.6577 99.2529 36.7163C99.3262 36.7749 99.3628 36.8481 99.3628 36.936C99.3628 37.0679 99.3335 37.1924 99.2749 37.3096C99.0991 37.749 98.8647 38.2324 98.5718 38.7598C98.2788 39.2871 97.9199 39.7778 97.4951 40.2319C97.0703 40.6714 96.5723 41.0449 96.001 41.3525C95.4443 41.6602 94.8071 41.814 94.0894 41.814H93.6499ZM87.981 53.6792C88.0981 53.6792 88.2886 53.5474 88.5522 53.2837C88.8013 53.02 89.0796 52.6392 89.3872 52.1411C89.7095 51.6577 90.0391 51.0571 90.376 50.3394C90.7129 49.6362 91.0278 48.8306 91.3208 47.9224C91.6138 47.0288 91.8628 46.04 92.0679 44.9561C92.2729 43.8721 92.3975 42.7148 92.4414 41.4844C92.1191 41.3525 91.8335 41.1768 91.5845 40.957C91.3354 40.7373 91.123 40.4956 90.9473 40.2319C90.6836 41.0815 90.4126 41.9604 90.1343 42.8687C89.856 43.7769 89.5923 44.6484 89.3433 45.4834C89.1089 46.333 88.8892 47.1167 88.6841 47.8345C88.4644 48.5522 88.2886 49.1382 88.1567 49.5923C87.7612 51.0278 87.5635 52.0752 87.5635 52.7344C87.5635 53.0127 87.6001 53.2397 87.6733 53.4155C87.7466 53.5913 87.8491 53.6792 87.981 53.6792ZM91.7163 38.6499C91.7163 39.4116 91.958 39.9976 92.4414 40.4077C92.4268 40.0269 92.4048 39.668 92.3755 39.3311C92.3462 38.9941 92.3096 38.7012 92.2656 38.4521C92.2363 38.1885 92.1997 37.9834 92.1558 37.8369C92.1118 37.6904 92.0679 37.6172 92.0239 37.6172C91.98 37.6172 91.9141 37.7124 91.8262 37.9028C91.7529 38.0933 91.7163 38.3423 91.7163 38.6499ZM110.701 37.7051C110.173 38.7891 109.558 39.8145 108.855 40.7812C108.152 41.748 107.39 42.5977 106.57 43.3301C105.764 44.0479 104.907 44.6191 103.999 45.0439C103.105 45.4688 102.205 45.6812 101.296 45.6812C100.637 45.6812 100.051 45.542 99.5386 45.2637C99.0259 45 98.5938 44.6338 98.2422 44.165C97.8906 43.6963 97.627 43.147 97.4512 42.5171C97.2754 41.8872 97.1875 41.2134 97.1875 40.4956C97.1875 39.3091 97.3486 38.1665 97.6709 37.0679C97.9932 35.9692 98.418 34.9438 98.9453 33.9917C99.4727 33.0396 100.073 32.168 100.747 31.377C101.421 30.5859 102.102 29.9121 102.791 29.3555C103.479 28.7842 104.146 28.3447 104.79 28.0371C105.449 27.7295 106.021 27.5757 106.504 27.5757C106.87 27.5757 107.192 27.6489 107.471 27.7954C107.764 27.9419 108.005 28.1396 108.196 28.3887C108.386 28.623 108.525 28.8867 108.613 29.1797C108.716 29.4727 108.767 29.7656 108.767 30.0586C108.767 30.9521 108.533 31.8823 108.064 32.8491C107.595 33.8013 106.98 34.7095 106.218 35.5737C105.457 36.4233 104.6 37.1924 103.647 37.8809C102.695 38.5547 101.729 39.0527 100.747 39.375C100.747 39.917 100.798 40.4297 100.901 40.9131C101.018 41.3818 101.187 41.7993 101.406 42.1655C101.641 42.5171 101.934 42.8027 102.285 43.0225C102.637 43.2275 103.054 43.3301 103.538 43.3301C104.021 43.3301 104.512 43.2349 105.01 43.0444C105.508 42.8394 106.021 42.5098 106.548 42.0557C107.09 41.5869 107.646 40.9717 108.218 40.21C108.789 39.4482 109.39 38.5107 110.02 37.3975C110.166 37.1631 110.298 37.0459 110.415 37.0459C110.518 37.0459 110.605 37.0752 110.679 37.1338C110.752 37.1924 110.789 37.2803 110.789 37.3975C110.789 37.4854 110.759 37.5879 110.701 37.7051ZM105.801 30.1025C105.376 30.1025 104.9 30.3516 104.373 30.8496C103.86 31.3477 103.362 31.9922 102.878 32.7832C102.395 33.5596 101.956 34.4312 101.56 35.3979C101.179 36.3501 100.923 37.2876 100.791 38.2104C101.509 37.8735 102.219 37.4561 102.922 36.958C103.64 36.4453 104.277 35.8813 104.834 35.2661C105.405 34.6509 105.867 33.999 106.218 33.3105C106.57 32.6074 106.746 31.897 106.746 31.1792C106.746 30.8862 106.665 30.6372 106.504 30.4321C106.343 30.2124 106.108 30.1025 105.801 30.1025ZM123.247 37.7051C122.954 38.4375 122.559 39.2651 122.061 40.188C121.577 41.0962 120.984 41.9604 120.281 42.7808C119.578 43.5864 118.765 44.2676 117.842 44.8242C116.919 45.3662 115.872 45.6372 114.7 45.6372C114.084 45.6372 113.521 45.5347 113.008 45.3296C112.495 45.1392 112.019 44.8242 111.58 44.3848C111.155 43.9453 110.745 43.374 110.349 42.6709C109.968 41.9678 109.587 41.1108 109.207 40.1001C109.163 39.9536 109.119 39.7852 109.075 39.5947C109.016 39.4043 108.987 39.1992 108.987 38.9795C108.987 38.6572 109.031 38.3203 109.119 37.9688C109.192 37.6025 109.338 37.2729 109.558 36.98C109.646 36.8774 109.749 36.7603 109.866 36.6284C109.983 36.4819 110.107 36.3428 110.239 36.2109C110.356 36.0645 110.481 35.9399 110.613 35.8374C110.745 35.7202 110.862 35.6396 110.964 35.5957C111.199 35.2295 111.448 34.8193 111.711 34.3652C111.975 33.9111 112.231 33.4424 112.48 32.959C112.729 32.4609 112.964 31.9556 113.184 31.4429C113.403 30.9302 113.579 30.4248 113.711 29.9268C113.755 29.7217 113.792 29.5239 113.821 29.3335C113.85 29.1431 113.887 28.9819 113.931 28.8501C113.96 28.7329 114.048 28.5571 114.194 28.3228C114.341 28.0884 114.509 27.832 114.7 27.5537C114.905 27.2754 115.11 26.9897 115.315 26.6968C115.535 26.4038 115.732 26.1475 115.908 25.9277C116.157 25.5908 116.37 25.3491 116.545 25.2026C116.721 25.0562 116.897 24.9829 117.073 24.9829C117.278 24.9829 117.439 25.0488 117.556 25.1807C117.688 25.2979 117.754 25.4224 117.754 25.5542C117.754 25.6714 117.732 25.7886 117.688 25.9058C117.644 26.0229 117.622 26.2354 117.622 26.543C117.622 26.8213 117.644 27.1436 117.688 27.5098C117.732 27.876 117.812 28.2642 117.93 28.6743C118.003 28.9819 118.12 29.48 118.281 30.1685C118.442 30.8423 118.604 31.6113 118.765 32.4756C118.926 33.3398 119.065 34.248 119.182 35.2002C119.314 36.1523 119.38 37.0459 119.38 37.8809C119.38 38.3203 119.314 38.8037 119.182 39.3311C119.065 39.8438 118.889 40.3638 118.655 40.8911C118.435 41.4038 118.164 41.9019 117.842 42.3853C117.52 42.854 117.161 43.2642 116.765 43.6157C117.424 43.5571 118.018 43.3667 118.545 43.0444C119.072 42.7222 119.563 42.29 120.017 41.748C120.486 41.2061 120.925 40.5688 121.335 39.8364C121.746 39.104 122.156 38.291 122.566 37.3975C122.683 37.1631 122.815 37.0459 122.961 37.0459C123.064 37.0459 123.152 37.0752 123.225 37.1338C123.298 37.1924 123.335 37.2803 123.335 37.3975C123.335 37.4854 123.306 37.5879 123.247 37.7051ZM114.963 30.7837C114.744 31.1646 114.495 31.5894 114.216 32.0581C113.953 32.5269 113.674 33.0176 113.381 33.5303C113.088 34.0283 112.795 34.5337 112.502 35.0464C112.209 35.5591 111.931 36.0425 111.667 36.4966C111.785 36.8188 111.902 37.1851 112.019 37.5952C112.136 38.0054 112.261 38.4009 112.393 38.7817C112.524 39.1772 112.664 39.5947 112.81 40.0342C112.971 40.4736 113.147 40.9058 113.337 41.3306C113.542 41.7407 113.777 42.1216 114.041 42.4731C114.304 42.8101 114.626 43.0811 115.007 43.2861C115.374 42.7881 115.645 42.2168 115.82 41.5723C115.996 40.9277 116.084 40.2979 116.084 39.6826C116.084 38.877 116.069 38.1299 116.04 37.4414C116.011 36.7383 115.952 36.0425 115.864 35.354C115.791 34.6655 115.681 33.9551 115.535 33.2227C115.388 32.4902 115.198 31.6772 114.963 30.7837ZM134.958 22.5C134.958 22.8223 134.863 23.2104 134.673 23.6646C134.482 24.104 134.233 24.5288 133.926 24.939C133.633 25.3345 133.303 25.6714 132.937 25.9497C132.585 26.228 132.241 26.3672 131.904 26.3672C131.45 26.3672 131.062 26.228 130.74 25.9497C130.432 25.6714 130.278 25.3784 130.278 25.0708C130.278 24.939 130.322 24.7412 130.41 24.4775C130.513 24.2139 130.637 23.9282 130.784 23.6206C130.945 23.2983 131.128 22.9761 131.333 22.6538C131.553 22.3169 131.78 22.0166 132.014 21.7529C132.263 21.4746 132.505 21.2549 132.739 21.0938C132.988 20.918 133.23 20.8301 133.464 20.8301C134.05 20.8301 134.446 20.9692 134.651 21.2476C134.856 21.5259 134.958 21.9434 134.958 22.5ZM132.124 37.7051C131.611 38.8623 131.047 39.9243 130.432 40.8911C129.832 41.8433 129.209 42.6636 128.564 43.3521C127.92 44.0259 127.253 44.5532 126.565 44.9341C125.891 45.3149 125.225 45.5054 124.565 45.5054C124.067 45.5054 123.643 45.3955 123.291 45.1758C122.939 44.9707 122.654 44.6851 122.434 44.3188C122.2 43.9526 122.031 43.5278 121.929 43.0444C121.826 42.5464 121.775 42.0117 121.775 41.4404C121.775 40.3711 121.921 39.3164 122.214 38.2764C122.507 37.2217 122.881 36.1963 123.335 35.2002C123.804 34.1895 124.331 33.2007 124.917 32.2339C125.503 31.2671 126.089 30.3296 126.675 29.4214C126.807 29.2017 126.968 29.0039 127.158 28.8281C127.349 28.6523 127.532 28.5645 127.708 28.5645C127.957 28.5645 128.206 28.6084 128.455 28.6963C128.704 28.7842 128.931 28.9014 129.136 29.0479C129.341 29.1797 129.502 29.3335 129.619 29.5093C129.751 29.6704 129.817 29.8389 129.817 30.0146C129.817 30.2197 129.692 30.5566 129.443 31.0254C129.194 31.4941 128.879 32.0581 128.499 32.7173C128.118 33.3618 127.708 34.0796 127.268 34.8706C126.843 35.6616 126.44 36.4819 126.06 37.3315C125.679 38.1812 125.364 39.0381 125.115 39.9023C124.866 40.752 124.741 41.5649 124.741 42.3413C124.741 42.5317 124.749 42.7222 124.763 42.9126C124.792 43.0884 124.844 43.2495 124.917 43.396C125.005 43.5278 125.129 43.6377 125.291 43.7256C125.466 43.7988 125.701 43.8354 125.994 43.8354C126.301 43.8354 126.682 43.6523 127.136 43.2861C127.605 42.9199 128.088 42.4365 128.586 41.8359C129.099 41.2207 129.604 40.5322 130.103 39.7705C130.615 38.9941 131.062 38.2031 131.443 37.3975C131.56 37.1631 131.692 37.0459 131.838 37.0459C131.941 37.0459 132.029 37.0752 132.102 37.1338C132.175 37.1924 132.212 37.2803 132.212 37.3975C132.212 37.4854 132.183 37.5879 132.124 37.7051ZM145.989 37.3096C145.813 37.749 145.571 38.2324 145.264 38.7598C144.971 39.2871 144.612 39.7778 144.187 40.2319C143.777 40.6714 143.308 41.0449 142.781 41.3525C142.253 41.6602 141.66 41.814 141.001 41.814C140.811 41.814 140.627 41.7993 140.452 41.77C140.291 41.7407 140.129 41.6895 139.968 41.6162C139.558 42.2314 139.119 42.8101 138.65 43.3521C138.196 43.894 137.705 44.3701 137.178 44.7803C136.65 45.1758 136.094 45.4907 135.508 45.7251C134.937 45.9595 134.336 46.0767 133.706 46.0767C133.12 46.0767 132.6 45.9741 132.146 45.769C131.707 45.564 131.333 45.2783 131.025 44.9121C130.718 44.5459 130.491 44.1138 130.344 43.6157C130.183 43.103 130.103 42.5464 130.103 41.9458C130.103 41.3745 130.183 40.6934 130.344 39.9023C130.491 39.1113 130.747 38.2764 131.113 37.3975C131.465 36.5186 131.919 35.625 132.476 34.7168C133.047 33.8086 133.743 32.9517 134.563 32.146C135.383 31.3257 136.335 30.5933 137.419 29.9487C138.518 29.2896 139.771 28.7695 141.177 28.3887H141.353C141.543 28.3887 141.719 28.4253 141.88 28.4985C142.041 28.5718 142.18 28.667 142.297 28.7842C142.415 28.9014 142.502 29.0259 142.561 29.1577C142.634 29.2896 142.671 29.4067 142.671 29.5093C142.671 29.7437 142.605 29.9121 142.473 30.0146C142.341 30.1172 142.151 30.1904 141.902 30.2344C141.77 30.2637 141.543 30.3076 141.221 30.3662C140.913 30.4102 140.525 30.5347 140.056 30.7397C139.602 30.9302 139.089 31.2378 138.518 31.6626C137.947 32.0728 137.346 32.6514 136.716 33.3984C136.292 33.8965 135.881 34.4971 135.486 35.2002C135.105 35.8887 134.768 36.6064 134.475 37.3535C134.182 38.1006 133.94 38.8477 133.75 39.5947C133.574 40.3271 133.486 40.9863 133.486 41.5723C133.486 42.3486 133.669 42.9565 134.036 43.396C134.402 43.8354 134.834 44.0552 135.332 44.0552C135.874 44.0552 136.453 43.7695 137.068 43.1982C137.698 42.6123 138.32 41.8359 138.936 40.8691C138.643 40.5029 138.401 40.0488 138.21 39.5068C138.02 38.9648 137.925 38.3203 137.925 37.5732C137.925 36.7529 138.027 35.9326 138.232 35.1123C138.452 34.292 138.738 33.5522 139.089 32.8931C139.441 32.2339 139.836 31.6992 140.276 31.2891C140.73 30.8643 141.191 30.6519 141.66 30.6519C142.114 30.6519 142.451 30.8569 142.671 31.2671C142.905 31.6626 143.022 32.1899 143.022 32.8491C143.022 33.2886 142.964 33.8159 142.847 34.4312C142.729 35.0317 142.561 35.6836 142.341 36.3867C142.122 37.0898 141.851 37.8149 141.528 38.562C141.221 39.3091 140.862 40.0415 140.452 40.7593C140.657 40.8618 140.898 40.9131 141.177 40.9131C141.689 40.9131 142.144 40.7959 142.539 40.5615C142.949 40.3271 143.315 40.0269 143.638 39.6606C143.96 39.2944 144.253 38.8843 144.517 38.4302C144.78 37.9761 145.029 37.5293 145.264 37.0898C145.41 36.7822 145.564 36.6284 145.725 36.6284C145.813 36.6284 145.894 36.6577 145.967 36.7163C146.04 36.7749 146.077 36.8481 146.077 36.936C146.077 37.0679 146.047 37.1924 145.989 37.3096ZM139.199 38.1665C139.199 38.5181 139.221 38.8403 139.265 39.1333C139.309 39.4263 139.39 39.6753 139.507 39.8804C139.8 39.3677 140.071 38.8477 140.32 38.3203C140.569 37.7783 140.811 37.2144 141.045 36.6284C141.25 36.0864 141.404 35.6396 141.506 35.2881C141.609 34.9219 141.66 34.6362 141.66 34.4312C141.66 33.9478 141.499 33.7061 141.177 33.7061C140.957 33.7061 140.73 33.8232 140.496 34.0576C140.276 34.292 140.063 34.6143 139.858 35.0244C139.668 35.4346 139.507 35.9106 139.375 36.4526C139.258 36.98 139.199 37.5513 139.199 38.1665ZM161.721 37.7051C161.208 38.8623 160.645 39.9536 160.029 40.979C159.429 41.9897 158.799 42.876 158.14 43.6377C157.48 44.3848 156.807 44.978 156.118 45.4175C155.43 45.8569 154.749 46.0767 154.075 46.0767C153.606 46.0767 153.196 45.9814 152.844 45.791C152.507 45.6006 152.222 45.3369 151.987 45C151.768 44.6631 151.599 44.2603 151.482 43.7915C151.379 43.3228 151.328 42.8101 151.328 42.2534C151.328 41.4917 151.475 40.6567 151.768 39.7485C152.075 38.8257 152.456 37.8882 152.91 36.936C153.379 35.9839 153.892 35.0464 154.448 34.1235C155.02 33.2007 155.569 32.3438 156.096 31.5527C155.73 31.8018 155.305 32.1167 154.822 32.4976C154.353 32.8784 153.855 33.2959 153.328 33.75C152.815 34.2041 152.288 34.6875 151.746 35.2002C151.204 35.6982 150.691 36.1963 150.208 36.6943C149.724 37.1777 149.277 37.6465 148.867 38.1006C148.457 38.5547 148.12 38.9648 147.856 39.3311C147.051 40.4297 146.392 41.4185 145.879 42.2974C145.366 43.1763 144.963 43.894 144.67 44.4507C144.465 44.8608 144.26 45.1392 144.055 45.2856C143.85 45.4321 143.638 45.5054 143.418 45.5054C143.228 45.5054 143.03 45.4468 142.825 45.3296C142.62 45.2271 142.517 45.0293 142.517 44.7363C142.517 44.5605 142.598 44.2017 142.759 43.6597C142.92 43.1177 143.14 42.4731 143.418 41.7261C143.682 40.9644 143.989 40.1294 144.341 39.2212C144.678 38.313 145.037 37.3975 145.417 36.4746C145.784 35.5371 146.15 34.6289 146.516 33.75C146.882 32.8564 147.219 32.0581 147.527 31.355C147.834 30.6519 148.098 30.0732 148.318 29.6191C148.538 29.1504 148.684 28.8794 148.757 28.8062C148.948 28.6157 149.255 28.5791 149.68 28.6963C150.12 28.8135 150.552 28.9966 150.977 29.2456C151.182 29.3774 151.335 29.5093 151.438 29.6411C151.555 29.7729 151.643 29.8975 151.702 30.0146C151.731 30.0879 151.738 30.1538 151.724 30.2124C151.709 30.271 151.687 30.3223 151.658 30.3662C151.614 30.4102 151.445 30.6738 151.152 31.1572C150.859 31.626 150.5 32.2339 150.076 32.981C149.651 33.7134 149.182 34.541 148.669 35.4639C148.157 36.3867 147.666 37.3169 147.197 38.2544C147.9 37.2876 148.582 36.4233 149.241 35.6616C149.9 34.8999 150.486 34.2407 150.999 33.6841C151.584 33.0542 152.148 32.4902 152.69 31.9922C154.258 30.6152 155.474 29.5898 156.338 28.916C157.217 28.2422 157.891 27.9053 158.359 27.9053C158.55 27.9053 158.748 27.9712 158.953 28.103C159.172 28.2202 159.37 28.3813 159.546 28.5864C159.722 28.7915 159.868 29.0259 159.985 29.2896C160.103 29.5532 160.161 29.8242 160.161 30.1025C160.161 30.3809 160.029 30.7617 159.766 31.2451C159.502 31.7139 159.172 32.2705 158.777 32.915C158.381 33.5449 157.949 34.248 157.48 35.0244C157.012 35.7861 156.58 36.5918 156.184 37.4414C155.789 38.291 155.459 39.1699 155.195 40.0781C154.932 40.9863 154.8 41.8945 154.8 42.8027C154.8 43.2275 154.858 43.5938 154.976 43.9014C155.107 44.209 155.32 44.3628 155.613 44.3628C155.92 44.3628 156.301 44.1504 156.755 43.7256C157.224 43.3008 157.708 42.7515 158.206 42.0776C158.718 41.4038 159.224 40.6567 159.722 39.8364C160.234 39.0015 160.681 38.1885 161.062 37.3975C161.179 37.1631 161.311 37.0459 161.458 37.0459C161.531 37.0459 161.604 37.0752 161.677 37.1338C161.765 37.1777 161.809 37.2656 161.809 37.3975C161.809 37.4854 161.78 37.5879 161.721 37.7051ZM176.421 37.7051C176.113 38.5254 175.725 39.3823 175.256 40.2759C174.802 41.1694 174.297 41.9897 173.74 42.7368C173.184 43.4692 172.59 44.0771 171.96 44.5605C171.331 45.0293 170.701 45.2637 170.071 45.2637C169.646 45.2637 169.294 45.1611 169.016 44.9561C168.738 44.7363 168.511 44.4727 168.335 44.165C168.174 43.8428 168.057 43.4985 167.983 43.1323C167.91 42.7661 167.874 42.4292 167.874 42.1216C167.874 41.6528 167.925 41.1108 168.027 40.4956C168.145 39.8804 168.364 39.1772 168.687 38.3862C168.188 39.0601 167.661 39.7485 167.104 40.4517C166.562 41.1401 166.006 41.7627 165.435 42.3193C164.878 42.876 164.314 43.3374 163.743 43.7036C163.186 44.0552 162.659 44.231 162.161 44.231C161.926 44.231 161.677 44.1724 161.414 44.0552C161.15 43.9233 160.908 43.7402 160.688 43.5059C160.454 43.2568 160.264 42.9565 160.117 42.605C159.971 42.2388 159.897 41.8213 159.897 41.3525C159.897 40.5615 160.081 39.6899 160.447 38.7378C160.813 37.771 161.274 36.8042 161.831 35.8374C162.402 34.8706 163.032 33.9331 163.721 33.0249C164.409 32.1167 165.076 31.3257 165.72 30.6519C166.306 30.022 166.855 29.4873 167.368 29.0479C167.896 28.6084 168.386 28.2568 168.84 27.9932C169.309 27.7148 169.749 27.5171 170.159 27.3999C170.569 27.2681 170.964 27.1948 171.345 27.1802C171.697 27.1802 171.99 27.2241 172.224 27.312C172.458 27.3853 172.642 27.4878 172.773 27.6196C172.905 27.7515 172.993 27.9053 173.037 28.0811C173.096 28.2568 173.125 28.4399 173.125 28.6304C173.125 28.8354 173.066 29.0991 172.949 29.4214C172.832 29.7437 172.671 30.0659 172.466 30.3882C172.261 30.7104 172.019 30.9888 171.741 31.2231C171.477 31.4429 171.191 31.5527 170.884 31.5527C170.767 31.5527 170.693 31.5088 170.664 31.4209C170.635 31.333 170.62 31.2231 170.62 31.0913C170.62 30.8423 170.649 30.5493 170.708 30.2124C170.767 29.8755 170.796 29.5825 170.796 29.3335C170.796 29.1138 170.767 28.96 170.708 28.8721C170.664 28.7695 170.562 28.7183 170.4 28.7183C170.02 28.8794 169.609 29.1943 169.17 29.6631C168.745 30.1172 168.32 30.6592 167.896 31.2891C167.471 31.9043 167.061 32.5781 166.665 33.3105C166.284 34.0283 165.94 34.7461 165.632 35.4639C165.339 36.167 165.105 36.8408 164.929 37.4854C164.753 38.1152 164.666 38.6426 164.666 39.0674C164.666 39.375 164.709 39.6167 164.797 39.7925C164.885 39.9683 164.995 40.0562 165.127 40.0562C165.229 40.0562 165.391 39.9609 165.61 39.7705C165.83 39.5801 166.079 39.3311 166.357 39.0234C166.65 38.7158 166.951 38.3716 167.258 37.9907C167.566 37.5952 167.866 37.207 168.159 36.8262C168.467 36.4453 168.745 36.0864 168.994 35.7495C169.243 35.4126 169.441 35.1343 169.587 34.9146C169.968 34.3579 170.232 33.9258 170.378 33.6182C170.54 33.3105 170.708 33.1567 170.884 33.1567C170.957 33.1567 171.06 33.2153 171.191 33.3325C171.338 33.4497 171.477 33.5889 171.609 33.75C171.755 33.8965 171.88 34.0503 171.982 34.2114C172.085 34.3726 172.136 34.4897 172.136 34.563C172.136 34.7681 172.041 35.061 171.851 35.4419C171.66 35.8081 171.396 36.4014 171.06 37.2217C170.679 38.1006 170.393 38.9209 170.203 39.6826C170.027 40.4443 169.939 41.1182 169.939 41.7041C169.939 41.9092 169.954 42.1143 169.983 42.3193C170.012 42.5244 170.063 42.7148 170.137 42.8906C170.21 43.0518 170.312 43.1909 170.444 43.3081C170.576 43.4106 170.752 43.4619 170.972 43.4619C171.323 43.4619 171.682 43.3228 172.048 43.0444C172.429 42.7515 172.788 42.3853 173.125 41.9458C173.477 41.5063 173.806 41.0376 174.114 40.5396C174.421 40.0269 174.692 39.5435 174.927 39.0894C175.161 38.6353 175.344 38.2544 175.476 37.9468C175.623 37.6245 175.71 37.4414 175.74 37.3975C175.857 37.1631 175.996 37.0459 176.157 37.0459C176.245 37.0459 176.326 37.0752 176.399 37.1338C176.472 37.1924 176.509 37.2803 176.509 37.3975C176.509 37.4854 176.479 37.5879 176.421 37.7051ZM190.791 14.5459C190.791 15.2051 190.645 16.0107 190.352 16.9629C190.073 17.915 189.67 18.9771 189.143 20.1489C188.63 21.3062 188.008 22.5586 187.275 23.9062C186.543 25.2539 185.73 26.6528 184.836 28.103C183.958 29.5386 183.005 31.0034 181.98 32.4976C180.955 33.9771 179.885 35.4419 178.772 36.8921C178.728 37.3169 178.699 37.7344 178.684 38.1445C178.684 38.54 178.684 38.9209 178.684 39.2871C178.684 39.8438 178.706 40.3491 178.75 40.8032C178.794 41.2427 178.875 41.6309 178.992 41.9678C179.124 42.29 179.299 42.5391 179.519 42.7148C179.739 42.8906 180.017 42.9785 180.354 42.9785C180.632 42.9785 180.918 42.8833 181.211 42.6929C181.519 42.4878 181.819 42.2241 182.112 41.9019C182.405 41.5796 182.683 41.2134 182.947 40.8032C183.225 40.3931 183.481 39.9829 183.716 39.5728C183.95 39.1626 184.163 38.7671 184.353 38.3862C184.543 38.0054 184.69 37.6758 184.792 37.3975C184.866 37.2363 184.946 37.1411 185.034 37.1118C185.137 37.0679 185.21 37.0459 185.254 37.0459C185.342 37.0459 185.415 37.0825 185.474 37.1558C185.532 37.229 185.562 37.3242 185.562 37.4414C185.562 37.5 185.532 37.5879 185.474 37.7051C184.976 38.8916 184.441 39.9902 183.87 41.001C183.298 42.0117 182.712 42.8833 182.112 43.6157C181.511 44.3481 180.911 44.9194 180.31 45.3296C179.724 45.7397 179.167 45.9448 178.64 45.9448C178.23 45.9448 177.834 45.8569 177.454 45.6812C177.073 45.5054 176.729 45.2124 176.421 44.8022C176.128 44.3921 175.894 43.8501 175.718 43.1763C175.527 42.4878 175.432 41.6382 175.432 40.6274C175.432 39.2358 175.579 37.8003 175.872 36.3208C176.15 34.8267 176.523 33.3472 176.992 31.8823C177.461 30.4028 177.988 28.96 178.574 27.5537C179.175 26.1475 179.783 24.8218 180.398 23.5767C181.013 22.3315 181.614 21.1963 182.2 20.1709C182.786 19.1455 183.306 18.2739 183.76 17.5562C184.272 16.7358 184.771 15.9888 185.254 15.3149C185.752 14.6411 186.221 14.0698 186.66 13.6011C187.114 13.1177 187.546 12.7515 187.957 12.5024C188.367 12.2388 188.755 12.1069 189.121 12.1069C189.663 12.1069 190.073 12.334 190.352 12.7881C190.645 13.2275 190.791 13.8135 190.791 14.5459ZM179.805 31.5088C179.629 32.168 179.468 32.7979 179.321 33.3984C179.189 33.999 179.08 34.5776 178.992 35.1343C180.383 33.0981 181.606 31.1499 182.661 29.2896C183.716 27.4292 184.595 25.7446 185.298 24.2358C186.001 22.7124 186.528 21.4087 186.88 20.3247C187.231 19.2261 187.407 18.4204 187.407 17.9077C187.407 17.6147 187.371 17.417 187.297 17.3145C187.224 17.1973 187.1 17.1387 186.924 17.1387C186.704 17.1387 186.411 17.373 186.045 17.8418C185.679 18.2959 185.276 18.9038 184.836 19.6655C184.397 20.4272 183.936 21.3062 183.452 22.3022C182.969 23.2837 182.5 24.3091 182.046 25.3784C181.592 26.4478 181.167 27.5171 180.771 28.5864C180.376 29.6411 180.054 30.6152 179.805 31.5088Z" fill="#444444"/>
</svg>
