<svg width="118" height="36" viewBox="0 0 118 36" fill="none" xmlns="http://www.w3.org/2000/svg">
<path d="M15.8438 21.6875C15.8438 22.2083 15.625 22.6979 15.1875 23.1562C14.7708 23.6146 14.2188 24.0312 13.5312 24.4062C12.8646 24.7812 12.1146 25.1146 11.2812 25.4062C10.4479 25.6771 9.625 25.9062 8.8125 26.0938C8 26.3021 7.22917 26.4583 6.5 26.5625C5.79167 26.6667 5.22917 26.7188 4.8125 26.7188C4.41667 26.7188 3.98958 26.6771 3.53125 26.5938C3.09375 26.5312 2.72917 26.375 2.4375 26.125C2.27083 26 2.125 25.7188 2 25.2812C1.875 24.8438 1.75 24.3229 1.625 23.7188C1.52083 23.1146 1.42708 22.4688 1.34375 21.7812C1.26042 21.0729 1.1875 20.3854 1.125 19.7188C1.08333 19.0521 1.04167 18.4375 1 17.875C0.979167 17.3125 0.96875 16.875 0.96875 16.5625C0.96875 16.0417 0.979167 15.4167 1 14.6875C1.04167 13.9375 1.09375 13.1458 1.15625 12.3125C1.21875 11.4583 1.30208 10.5938 1.40625 9.71875C1.51042 8.84375 1.625 8.02083 1.75 7.25C1.89583 6.45833 2.0625 5.75 2.25 5.125C2.45833 4.5 2.67708 4.01042 2.90625 3.65625C3.30208 3.09375 3.80208 2.8125 4.40625 2.8125C4.82292 2.8125 5.17708 2.95833 5.46875 3.25C5.76042 3.52083 5.98958 3.88542 6.15625 4.34375C6.34375 4.78125 6.47917 5.28125 6.5625 5.84375C6.66667 6.38542 6.73958 6.92708 6.78125 7.46875C6.82292 8.01042 6.84375 8.51042 6.84375 8.96875C6.84375 9.42708 6.84375 9.79167 6.84375 10.0625C6.84375 11.6875 6.80208 13.3021 6.71875 14.9062C6.65625 16.4896 6.625 18.0938 6.625 19.7188V20.9375C7.5625 20.6458 8.58333 20.375 9.6875 20.125C10.7917 19.8542 11.8438 19.7188 12.8438 19.7188C13.1979 19.7188 13.5521 19.7396 13.9062 19.7812C14.2812 19.8229 14.6042 19.9167 14.875 20.0625C15.1667 20.1875 15.3958 20.3854 15.5625 20.6562C15.75 20.9062 15.8438 21.25 15.8438 21.6875ZM29.9062 21.5938C29.9062 21.9688 29.8854 22.4583 29.8438 23.0625C29.8229 23.6667 29.7396 24.2604 29.5938 24.8438C29.4479 25.4062 29.2188 25.8958 28.9062 26.3125C28.5938 26.7292 28.1562 26.9375 27.5938 26.9375C26.8229 26.9375 26.2292 26.6875 25.8125 26.1875C25.3958 25.6875 25.1979 25.0625 25.2188 24.3125C24.5521 24.8958 23.7917 25.3542 22.9375 25.6875C22.1042 26.0208 21.25 26.1875 20.375 26.1875C19.7708 26.1875 19.1979 26.0417 18.6562 25.75C18.1146 25.4583 17.6354 25.0833 17.2188 24.625C16.8021 24.1667 16.4688 23.6562 16.2188 23.0938C15.9688 22.5104 15.8438 21.9375 15.8438 21.375C15.8438 20.375 16.1458 19.5 16.75 18.75C17.375 18 18.1354 17.3646 19.0312 16.8438C19.9271 16.3021 20.875 15.875 21.875 15.5625C22.8958 15.25 23.8021 15.0417 24.5938 14.9375C24.5938 14.8333 24.5938 14.7396 24.5938 14.6562C24.6146 14.5729 24.625 14.4792 24.625 14.375C24.625 13.7292 24.4479 13.2083 24.0938 12.8125C23.7396 12.4167 23.2396 12.2188 22.5938 12.2188C22.0729 12.2188 21.625 12.3125 21.25 12.5C20.875 12.6667 20.5208 12.8646 20.1875 13.0938C19.8542 13.3021 19.5208 13.5 19.1875 13.6875C18.8542 13.8542 18.4792 13.9375 18.0625 13.9375C17.6042 13.9375 17.2083 13.7917 16.875 13.5C16.5625 13.2083 16.4062 12.8333 16.4062 12.375C16.4062 11.6875 16.6042 11.0625 17 10.5C17.4167 9.9375 17.9271 9.46875 18.5312 9.09375C19.1562 8.69792 19.8229 8.39583 20.5312 8.1875C21.2604 7.95833 21.9271 7.84375 22.5312 7.84375C23.0938 7.84375 23.6562 7.91667 24.2188 8.0625C24.7812 8.1875 25.3125 8.39583 25.8125 8.6875C26.3125 8.95833 26.7604 9.30208 27.1562 9.71875C27.5729 10.1146 27.9062 10.5833 28.1562 11.125C28.5312 11.8958 28.8333 12.7188 29.0625 13.5938C29.2917 14.4479 29.4688 15.3333 29.5938 16.25C29.7188 17.1458 29.8021 18.0521 29.8438 18.9688C29.8854 19.8646 29.9062 20.7396 29.9062 21.5938ZM24.9062 20.5938L24.8125 18.4688C24.7708 18.4688 24.7292 18.4688 24.6875 18.4688C24.6458 18.4479 24.6042 18.4375 24.5625 18.4375C24.2917 18.4375 23.9479 18.5104 23.5312 18.6562C23.1354 18.7812 22.75 18.9688 22.375 19.2188C22 19.4479 21.6771 19.7083 21.4062 20C21.1562 20.2917 21.0312 20.5938 21.0312 20.9062C21.0312 21.1979 21.1354 21.3958 21.3438 21.5C21.5521 21.6042 21.7917 21.6562 22.0625 21.6562C22.5208 21.6562 23.0104 21.5417 23.5312 21.3125C24.0521 21.0625 24.5104 20.8229 24.9062 20.5938ZM40.6562 26.875C40.3021 26.875 40.0208 26.7083 39.8125 26.375C39.6042 26.0625 39.4479 25.6979 39.3438 25.2812C39.2396 24.8646 39.1667 24.4479 39.125 24.0312C39.1042 23.5938 39.0938 23.2604 39.0938 23.0312C39.0938 22.4062 39.125 21.7812 39.1875 21.1562C39.2708 20.5312 39.3542 19.9062 39.4375 19.2812C39.5417 18.6562 39.625 18.0312 39.6875 17.4062C39.7708 16.7812 39.8125 16.1562 39.8125 15.5312C39.8125 15.2812 39.8021 15.0104 39.7812 14.7188C39.7604 14.4271 39.7083 14.1562 39.625 13.9062C39.5625 13.6354 39.4479 13.4167 39.2812 13.25C39.1146 13.0833 38.8958 13 38.625 13C38.4375 13 38.2292 13.1562 38 13.4688C37.7708 13.7604 37.5521 14.1042 37.3438 14.5C37.1562 14.875 36.9896 15.2604 36.8438 15.6562C36.7188 16.0312 36.6562 16.3125 36.6562 16.5C36.6562 16.9583 36.6562 17.4271 36.6562 17.9062C36.6771 18.3646 36.6875 18.8333 36.6875 19.3125V21.125C36.6667 21.5 36.6354 21.8854 36.5938 22.2812C36.5521 22.6771 36.4896 23.0625 36.4062 23.4375C36.3438 23.8125 36.25 24.1771 36.125 24.5312C36 24.8646 35.8333 25.1667 35.625 25.4375C35.4375 25.6875 35.2083 25.8958 34.9375 26.0625C34.6667 26.2292 34.3438 26.3125 33.9688 26.3125C33.5521 26.3125 33.2083 26.1771 32.9375 25.9062C32.6667 25.6354 32.4479 25.2917 32.2812 24.875C32.1146 24.4375 31.9896 23.9583 31.9062 23.4375C31.8438 22.8958 31.7917 22.375 31.75 21.875C31.7292 21.3542 31.7188 20.8854 31.7188 20.4688C31.7396 20.0312 31.75 19.6875 31.75 19.4375V17.9688C31.75 17.1771 31.7292 16.3958 31.6875 15.625C31.6667 14.8542 31.6562 14.0833 31.6562 13.3125C31.6562 12.8958 31.6562 12.3646 31.6562 11.7188C31.6771 11.0729 31.7604 10.4479 31.9062 9.84375C32.0521 9.21875 32.2917 8.6875 32.625 8.25C32.9583 7.8125 33.4479 7.59375 34.0938 7.59375C34.3854 7.59375 34.6458 7.6875 34.875 7.875C35.1042 8.0625 35.3021 8.29167 35.4688 8.5625C35.6562 8.83333 35.8021 9.125 35.9062 9.4375C36.0312 9.75 36.125 10.0208 36.1875 10.25C36.3958 9.95833 36.6354 9.67708 36.9062 9.40625C37.1979 9.13542 37.5208 8.89583 37.875 8.6875C38.2292 8.47917 38.625 8.3125 39.0625 8.1875C39.5 8.0625 40 8 40.5625 8C41.625 8 42.4479 8.26042 43.0312 8.78125C43.6354 9.28125 44.0729 9.91667 44.3438 10.6875C44.6354 11.4375 44.8125 12.25 44.875 13.125C44.9375 14 44.9688 14.7917 44.9688 15.5C44.9688 15.8542 44.9375 16.3854 44.875 17.0938C44.8125 17.7812 44.7083 18.5521 44.5625 19.4062C44.4375 20.2396 44.2604 21.1042 44.0312 22C43.8021 22.875 43.5312 23.6771 43.2188 24.4062C42.9062 25.1354 42.5312 25.7292 42.0938 26.1875C41.6771 26.6458 41.1979 26.875 40.6562 26.875ZM60.1875 5.4375C60.1875 6.95833 60.125 8.46875 60 9.96875C59.8958 11.4688 59.8438 12.9792 59.8438 14.5C59.8438 15.7292 59.875 16.9479 59.9375 18.1562C60.0208 19.3646 60.0625 20.5833 60.0625 21.8125C60.0625 22.1458 60.0521 22.5521 60.0312 23.0312C60.0104 23.4896 59.9375 23.9375 59.8125 24.375C59.7083 24.8125 59.5208 25.1875 59.25 25.5C59 25.8125 58.6354 25.9688 58.1562 25.9688C57.5312 25.9688 57.0104 25.7396 56.5938 25.2812C56.1979 24.8021 55.9479 24.2708 55.8438 23.6875C55.4479 24.4375 54.875 25.0729 54.125 25.5938C53.375 26.1146 52.5625 26.375 51.6875 26.375C50.75 26.375 49.9375 26.0521 49.25 25.4062C48.5833 24.7604 48.0208 23.9792 47.5625 23.0625C47.125 22.1458 46.7917 21.1875 46.5625 20.1875C46.3542 19.1875 46.25 18.3229 46.25 17.5938C46.25 17.0729 46.2812 16.4792 46.3438 15.8125C46.4062 15.1458 46.5104 14.4688 46.6562 13.7812C46.8229 13.0938 47.0312 12.4271 47.2812 11.7812C47.5312 11.1146 47.8438 10.5208 48.2188 10C48.6146 9.47917 49.0729 9.0625 49.5938 8.75C50.1354 8.4375 50.75 8.28125 51.4375 8.28125C52.1875 8.28125 52.9062 8.5 53.5938 8.9375C54.2812 9.375 54.8021 9.91667 55.1562 10.5625L55.4375 5.59375C55.4583 5.19792 55.4896 4.73958 55.5312 4.21875C55.5729 3.67708 55.6562 3.16667 55.7812 2.6875C55.9271 2.20833 56.1458 1.80208 56.4375 1.46875C56.7292 1.13542 57.1562 0.96875 57.7188 0.96875C58.3229 0.96875 58.7917 1.11458 59.125 1.40625C59.4583 1.69792 59.6979 2.07292 59.8438 2.53125C60.0104 2.96875 60.1042 3.44792 60.125 3.96875C60.1667 4.48958 60.1875 4.97917 60.1875 5.4375ZM55.0938 19.3125C55.0938 18.8333 55.0833 18.3646 55.0625 17.9062C55.0417 17.4479 55.0417 16.9792 55.0625 16.5C54.9375 16.2292 54.7917 15.9375 54.625 15.625C54.4583 15.2917 54.25 14.9896 54 14.7188C53.7708 14.4271 53.5104 14.1875 53.2188 14C52.9271 13.8125 52.6146 13.7188 52.2812 13.7188C51.9062 13.7188 51.6042 13.8333 51.375 14.0625C51.1458 14.2917 50.9792 14.5729 50.875 14.9062C50.7708 15.2188 50.6979 15.5625 50.6562 15.9375C50.6354 16.3125 50.625 16.6354 50.625 16.9062C50.625 17.1562 50.6458 17.5312 50.6875 18.0312C50.7292 18.5104 50.8021 19 50.9062 19.5C51.0312 20 51.1979 20.4375 51.4062 20.8125C51.6146 21.1875 51.8958 21.375 52.25 21.375C52.5208 21.375 52.7917 21.3229 53.0625 21.2188C53.3333 21.0938 53.5833 20.9479 53.8125 20.7812C54.0625 20.5938 54.2917 20.3958 54.5 20.1875C54.7292 19.9583 54.9271 19.75 55.0938 19.5625V19.3125ZM69.0312 35.0938C68.5312 35.0938 67.9583 35.0104 67.3125 34.8438C66.6875 34.6979 66.0938 34.4792 65.5312 34.1875C64.9688 33.8958 64.4896 33.5417 64.0938 33.125C63.7188 32.7083 63.5312 32.2292 63.5312 31.6875C63.5312 31.4792 63.5833 31.2708 63.6875 31.0625C63.7917 30.8542 63.9271 30.6667 64.0938 30.5C64.2812 30.3542 64.4792 30.2292 64.6875 30.125C64.8958 30.0417 65.1146 30 65.3438 30C65.5938 30 65.8333 30.0312 66.0625 30.0938C66.3125 30.1771 66.5625 30.2708 66.8125 30.375C67.0833 30.4792 67.3438 30.5729 67.5938 30.6562C67.8646 30.7396 68.1458 30.7812 68.4375 30.7812C68.9583 30.7812 69.4062 30.6042 69.7812 30.25C70.1771 29.8958 70.5104 29.4271 70.7812 28.8438C71.0521 28.2812 71.2708 27.6458 71.4375 26.9375C71.6042 26.25 71.7292 25.5625 71.8125 24.875C71.9167 24.1875 71.9896 23.5417 72.0312 22.9375C72.0729 22.3333 72.1042 21.8438 72.125 21.4688C71.3958 22.5729 70.6667 23.4271 69.9375 24.0312C69.2292 24.6146 68.3542 24.9062 67.3125 24.9062C66.5208 24.9062 65.8229 24.7396 65.2188 24.4062C64.6354 24.0729 64.1354 23.6354 63.7188 23.0938C63.3021 22.5521 62.9583 21.9375 62.6875 21.25C62.4167 20.5417 62.2083 19.8125 62.0625 19.0625C61.9375 18.3125 61.8542 17.5833 61.8125 16.875C61.7708 16.1458 61.7708 15.4792 61.8125 14.875C61.8333 14.4167 61.8854 13.8229 61.9688 13.0938C62.0729 12.3438 62.2292 11.6146 62.4375 10.9062C62.6458 10.1979 62.9375 9.60417 63.3125 9.125C63.6875 8.625 64.1771 8.39583 64.7812 8.4375C65.1771 8.45833 65.5 8.63542 65.75 8.96875C66 9.28125 66.1979 9.67708 66.3438 10.1562C66.5104 10.6354 66.625 11.1667 66.6875 11.75C66.7708 12.3125 66.8229 12.875 66.8438 13.4375C66.8646 14 66.8646 14.5208 66.8438 15C66.8438 15.4583 66.8438 15.8125 66.8438 16.0625C66.8438 16.4167 66.8542 16.7708 66.875 17.125C66.8958 17.4792 66.9688 17.8021 67.0938 18.0938C67.2188 18.3646 67.4062 18.5833 67.6562 18.75C67.9271 18.9167 68.3021 19 68.7812 19C69.3229 19 69.75 18.8646 70.0625 18.5938C70.3958 18.3229 70.6354 17.9896 70.7812 17.5938C70.9479 17.1771 71.0521 16.7396 71.0938 16.2812C71.1354 15.8021 71.1562 15.3542 71.1562 14.9375C71.1562 14.6458 71.1562 14.2917 71.1562 13.875C71.1562 13.4583 71.1562 13.0208 71.1562 12.5625C71.1771 12.1042 71.2188 11.6562 71.2812 11.2188C71.3646 10.7604 71.4792 10.3542 71.625 10C71.7917 9.625 72 9.32292 72.25 9.09375C72.5208 8.86458 72.8646 8.75 73.2812 8.75C73.8021 8.75 74.25 8.95833 74.625 9.375C75 9.77083 75.3125 10.3021 75.5625 10.9688C75.8333 11.6146 76.0417 12.3333 76.1875 13.125C76.3542 13.9167 76.4792 14.7083 76.5625 15.5C76.6458 16.2708 76.6979 16.9896 76.7188 17.6562C76.7604 18.3021 76.7812 18.8125 76.7812 19.1875C76.7812 20.0625 76.75 21.0625 76.6875 22.1875C76.625 23.2917 76.5 24.4375 76.3125 25.625C76.1458 26.7917 75.8854 27.9375 75.5312 29.0625C75.1771 30.2083 74.7083 31.2292 74.125 32.125C73.5625 33.0208 72.8646 33.7396 72.0312 34.2812C71.1979 34.8229 70.1979 35.0938 69.0312 35.0938ZM91.9062 7.3125C91.9062 7.70833 91.8646 8.09375 91.7812 8.46875C91.7188 8.82292 91.5938 9.13542 91.4062 9.40625C91.2188 9.67708 90.9688 9.89583 90.6562 10.0625C90.3438 10.2083 89.9583 10.2812 89.5 10.2812C88.9792 10.2812 88.5938 10.1771 88.3438 9.96875C88.0938 9.76042 87.9167 9.51042 87.8125 9.21875C87.7292 8.90625 87.6875 8.57292 87.6875 8.21875C87.6875 7.86458 87.6667 7.54167 87.625 7.25C87.6042 6.9375 87.5312 6.67708 87.4062 6.46875C87.2812 6.26042 87.0521 6.15625 86.7188 6.15625C86.4062 6.15625 86.1458 6.39583 85.9375 6.875C85.75 7.35417 85.5938 7.90625 85.4688 8.53125C85.3438 9.15625 85.2604 9.77083 85.2188 10.375C85.1771 10.9583 85.1562 11.3542 85.1562 11.5625C85.4271 11.5208 85.6875 11.4896 85.9375 11.4688C86.1875 11.4271 86.4583 11.4062 86.75 11.4062C87.0417 11.4062 87.3438 11.4375 87.6562 11.5C87.9688 11.5625 88.2604 11.6667 88.5312 11.8125C88.8021 11.9375 89.0208 12.125 89.1875 12.375C89.3542 12.6042 89.4375 12.8958 89.4375 13.25C89.4375 13.625 89.2708 13.9583 88.9375 14.25C88.625 14.5417 88.2396 14.7917 87.7812 15C87.3438 15.1875 86.8958 15.3438 86.4375 15.4688C85.9792 15.5938 85.6146 15.6771 85.3438 15.7188C85.4062 17.1562 85.4375 18.6042 85.4375 20.0625C85.4375 21.4375 85.4062 22.7917 85.3438 24.125C85.3021 24.7708 85.0729 25.3021 84.6562 25.7188C84.2604 26.1354 83.7396 26.3438 83.0938 26.3438C82.7396 26.3438 82.4375 26.2708 82.1875 26.125C81.9375 26 81.7292 25.8229 81.5625 25.5938C81.3958 25.3646 81.2604 25.1042 81.1562 24.8125C81.0729 24.5208 81.0208 24.2188 81 23.9062C80.8958 22.6562 80.8125 21.4062 80.75 20.1562C80.6875 18.8854 80.6667 17.6146 80.6875 16.3438C80.5417 16.3646 80.3958 16.375 80.25 16.375C80.125 16.375 79.9896 16.375 79.8438 16.375C79.5938 16.375 79.2917 16.3438 78.9375 16.2812C78.5833 16.2188 78.2396 16.1146 77.9062 15.9688C77.5938 15.8021 77.3229 15.6042 77.0938 15.375C76.8646 15.1458 76.75 14.8542 76.75 14.5C76.75 14.0417 76.9062 13.6562 77.2188 13.3438C77.5104 13.0312 77.8646 12.7812 78.2812 12.5938C78.7188 12.3854 79.1667 12.2396 79.625 12.1562C80.1042 12.0729 80.5208 12.0104 80.875 11.9688V11.4688C80.875 10.4479 80.9688 9.35417 81.1562 8.1875C81.3438 7.02083 81.6771 5.9375 82.1562 4.9375C82.6354 3.9375 83.2917 3.11458 84.125 2.46875C84.9583 1.80208 86.0208 1.46875 87.3125 1.46875C88.125 1.46875 88.8229 1.64583 89.4062 2C89.9896 2.33333 90.4688 2.78125 90.8438 3.34375C91.2188 3.88542 91.4896 4.51042 91.6562 5.21875C91.8229 5.90625 91.9062 6.60417 91.9062 7.3125ZM95.2812 24.5C95.2812 24.7708 95.2188 25.0208 95.0938 25.25C94.9688 25.4583 94.8021 25.6354 94.5938 25.7812C94.4062 25.9271 94.1875 26.0417 93.9375 26.125C93.7083 26.2083 93.4688 26.25 93.2188 26.25C92.9062 26.25 92.5625 26.1875 92.1875 26.0625C91.8333 25.9583 91.5 25.8021 91.1875 25.5938C90.8958 25.3854 90.6458 25.1458 90.4375 24.875C90.2292 24.5833 90.125 24.2604 90.125 23.9062C90.125 23.3438 90.3646 22.9271 90.8438 22.6562C91.3229 22.3646 91.8125 22.2188 92.3125 22.2188C92.625 22.2188 92.9479 22.2708 93.2812 22.375C93.6354 22.4792 93.9583 22.6354 94.25 22.8438C94.5625 23.0312 94.8125 23.2708 95 23.5625C95.1875 23.8333 95.2812 24.1458 95.2812 24.5ZM109.812 21.5938C109.812 21.9688 109.792 22.4583 109.75 23.0625C109.729 23.6667 109.646 24.2604 109.5 24.8438C109.354 25.4062 109.125 25.8958 108.812 26.3125C108.5 26.7292 108.062 26.9375 107.5 26.9375C106.729 26.9375 106.135 26.6875 105.719 26.1875C105.302 25.6875 105.104 25.0625 105.125 24.3125C104.458 24.8958 103.698 25.3542 102.844 25.6875C102.01 26.0208 101.156 26.1875 100.281 26.1875C99.6771 26.1875 99.1042 26.0417 98.5625 25.75C98.0208 25.4583 97.5417 25.0833 97.125 24.625C96.7083 24.1667 96.375 23.6562 96.125 23.0938C95.875 22.5104 95.75 21.9375 95.75 21.375C95.75 20.375 96.0521 19.5 96.6562 18.75C97.2812 18 98.0417 17.3646 98.9375 16.8438C99.8333 16.3021 100.781 15.875 101.781 15.5625C102.802 15.25 103.708 15.0417 104.5 14.9375C104.5 14.8333 104.5 14.7396 104.5 14.6562C104.521 14.5729 104.531 14.4792 104.531 14.375C104.531 13.7292 104.354 13.2083 104 12.8125C103.646 12.4167 103.146 12.2188 102.5 12.2188C101.979 12.2188 101.531 12.3125 101.156 12.5C100.781 12.6667 100.427 12.8646 100.094 13.0938C99.7604 13.3021 99.4271 13.5 99.0938 13.6875C98.7604 13.8542 98.3854 13.9375 97.9688 13.9375C97.5104 13.9375 97.1146 13.7917 96.7812 13.5C96.4688 13.2083 96.3125 12.8333 96.3125 12.375C96.3125 11.6875 96.5104 11.0625 96.9062 10.5C97.3229 9.9375 97.8333 9.46875 98.4375 9.09375C99.0625 8.69792 99.7292 8.39583 100.438 8.1875C101.167 7.95833 101.833 7.84375 102.438 7.84375C103 7.84375 103.562 7.91667 104.125 8.0625C104.688 8.1875 105.219 8.39583 105.719 8.6875C106.219 8.95833 106.667 9.30208 107.062 9.71875C107.479 10.1146 107.812 10.5833 108.062 11.125C108.438 11.8958 108.74 12.7188 108.969 13.5938C109.198 14.4479 109.375 15.3333 109.5 16.25C109.625 17.1458 109.708 18.0521 109.75 18.9688C109.792 19.8646 109.812 20.7396 109.812 21.5938ZM104.812 20.5938L104.719 18.4688C104.677 18.4688 104.635 18.4688 104.594 18.4688C104.552 18.4479 104.51 18.4375 104.469 18.4375C104.198 18.4375 103.854 18.5104 103.438 18.6562C103.042 18.7812 102.656 18.9688 102.281 19.2188C101.906 19.4479 101.583 19.7083 101.312 20C101.062 20.2917 100.938 20.5938 100.938 20.9062C100.938 21.1979 101.042 21.3958 101.25 21.5C101.458 21.6042 101.698 21.6562 101.969 21.6562C102.427 21.6562 102.917 21.5417 103.438 21.3125C103.958 21.0625 104.417 20.8229 104.812 20.5938ZM116.844 4.1875C116.844 4.47917 116.76 4.73958 116.594 4.96875C116.448 5.19792 116.25 5.40625 116 5.59375C115.75 5.76042 115.479 5.89583 115.188 6C114.896 6.08333 114.625 6.125 114.375 6.125C113.958 6.125 113.594 6.02083 113.281 5.8125C112.969 5.60417 112.812 5.28125 112.812 4.84375C112.812 4.53125 112.885 4.26042 113.031 4.03125C113.198 3.78125 113.396 3.58333 113.625 3.4375C113.854 3.27083 114.115 3.14583 114.406 3.0625C114.698 2.97917 114.979 2.9375 115.25 2.9375C115.646 2.9375 116.01 3.03125 116.344 3.21875C116.677 3.40625 116.844 3.72917 116.844 4.1875ZM117.094 14.8125C117.094 15.1042 117.094 15.4167 117.094 15.75C117.094 16.0625 117.083 16.3646 117.062 16.6562C117.042 17.0104 117.031 17.4896 117.031 18.0938C117.031 18.6771 117.01 19.3125 116.969 20C116.927 20.6875 116.854 21.3854 116.75 22.0938C116.667 22.8021 116.521 23.4479 116.312 24.0312C116.104 24.6146 115.823 25.0938 115.469 25.4688C115.135 25.8229 114.708 26.0104 114.188 26.0312C113.792 26.0521 113.458 25.8958 113.188 25.5625C112.917 25.2292 112.688 24.8021 112.5 24.2812C112.333 23.7396 112.208 23.1458 112.125 22.5C112.042 21.8333 111.979 21.1979 111.938 20.5938C111.896 19.9688 111.875 19.3958 111.875 18.875C111.875 18.3542 111.875 17.9688 111.875 17.7188C111.875 17.3854 111.875 16.9167 111.875 16.3125C111.875 15.6875 111.896 15.0208 111.938 14.3125C111.979 13.6042 112.052 12.8854 112.156 12.1562C112.281 11.4271 112.448 10.7604 112.656 10.1562C112.885 9.55208 113.177 9.0625 113.531 8.6875C113.885 8.3125 114.333 8.125 114.875 8.125C115.438 8.125 115.865 8.40625 116.156 8.96875C116.448 9.53125 116.667 10.1875 116.812 10.9375C116.958 11.6875 117.042 12.4375 117.062 13.1875C117.083 13.9167 117.094 14.4583 117.094 14.8125Z" fill="white"/>
</svg>
